<?xml version="1.0" encoding="utf-8" standalone="no"?>
<!DOCTYPE svg PUBLIC "-//W3C//DTD SVG 1.1//EN"
  "http://www.w3.org/Graphics/SVG/1.1/DTD/svg11.dtd">
<!-- Created with matplotlib (http://matplotlib.org/) -->
<svg height="576pt" version="1.1" viewBox="0 0 1152 576" width="1152pt" xmlns="http://www.w3.org/2000/svg" xmlns:xlink="http://www.w3.org/1999/xlink">
 <defs>
  <style type="text/css">
*{stroke-linecap:butt;stroke-linejoin:round;}
  </style>
 </defs>
 <g id="figure_1">
  <g id="patch_1">
   <path d="M 0 576 
L 1152 576 
L 1152 0 
L 0 0 
z
" style="fill:#ffffff;"/>
  </g>
  <g id="axes_1">
   <g id="patch_2">
    <path d="M 144 270.72 
L 721.694118 270.72 
L 721.694118 69.12 
L 144 69.12 
z
" style="fill:#ffffff;"/>
   </g>
   <g id="matplotlib.axis_1">
    <g id="xtick_1">
     <g id="line2d_1">
      <defs>
       <path d="M 0 0 
L 0 3.5 
" id="m84fc4062ad" style="stroke:#000000;stroke-width:0.8;"/>
      </defs>
      <g>
       <use style="stroke:#000000;stroke-width:0.8;" x="163.61102" xlink:href="#m84fc4062ad" y="270.72"/>
      </g>
     </g>
     <g id="text_1">
      <!-- 0 -->
      <defs>
       <path d="M 31.78125 66.40625 
Q 24.171875 66.40625 20.328125 58.90625 
Q 16.5 51.421875 16.5 36.375 
Q 16.5 21.390625 20.328125 13.890625 
Q 24.171875 6.390625 31.78125 6.390625 
Q 39.453125 6.390625 43.28125 13.890625 
Q 47.125 21.390625 47.125 36.375 
Q 47.125 51.421875 43.28125 58.90625 
Q 39.453125 66.40625 31.78125 66.40625 
z
M 31.78125 74.21875 
Q 44.046875 74.21875 50.515625 64.515625 
Q 56.984375 54.828125 56.984375 36.375 
Q 56.984375 17.96875 50.515625 8.265625 
Q 44.046875 -1.421875 31.78125 -1.421875 
Q 19.53125 -1.421875 13.0625 8.265625 
Q 6.59375 17.96875 6.59375 36.375 
Q 6.59375 54.828125 13.0625 64.515625 
Q 19.53125 74.21875 31.78125 74.21875 
z
" id="DejaVuSans-30"/>
      </defs>
      <g transform="translate(160.42977 285.318437)scale(0.1 -0.1)">
       <use xlink:href="#DejaVuSans-30"/>
      </g>
     </g>
    </g>
    <g id="xtick_2">
     <g id="line2d_2">
      <g>
       <use style="stroke:#000000;stroke-width:0.8;" x="230.089054" xlink:href="#m84fc4062ad" y="270.72"/>
      </g>
     </g>
     <g id="text_2">
      <!-- 10 -->
      <defs>
       <path d="M 12.40625 8.296875 
L 28.515625 8.296875 
L 28.515625 63.921875 
L 10.984375 60.40625 
L 10.984375 69.390625 
L 28.421875 72.90625 
L 38.28125 72.90625 
L 38.28125 8.296875 
L 54.390625 8.296875 
L 54.390625 0 
L 12.40625 0 
z
" id="DejaVuSans-31"/>
      </defs>
      <g transform="translate(223.726554 285.318437)scale(0.1 -0.1)">
       <use xlink:href="#DejaVuSans-31"/>
       <use x="63.623047" xlink:href="#DejaVuSans-30"/>
      </g>
     </g>
    </g>
    <g id="xtick_3">
     <g id="line2d_3">
      <g>
       <use style="stroke:#000000;stroke-width:0.8;" x="296.567089" xlink:href="#m84fc4062ad" y="270.72"/>
      </g>
     </g>
     <g id="text_3">
      <!-- 20 -->
      <defs>
       <path d="M 19.1875 8.296875 
L 53.609375 8.296875 
L 53.609375 0 
L 7.328125 0 
L 7.328125 8.296875 
Q 12.9375 14.109375 22.625 23.890625 
Q 32.328125 33.6875 34.8125 36.53125 
Q 39.546875 41.84375 41.421875 45.53125 
Q 43.3125 49.21875 43.3125 52.78125 
Q 43.3125 58.59375 39.234375 62.25 
Q 35.15625 65.921875 28.609375 65.921875 
Q 23.96875 65.921875 18.8125 64.3125 
Q 13.671875 62.703125 7.8125 59.421875 
L 7.8125 69.390625 
Q 13.765625 71.78125 18.9375 73 
Q 24.125 74.21875 28.421875 74.21875 
Q 39.75 74.21875 46.484375 68.546875 
Q 53.21875 62.890625 53.21875 53.421875 
Q 53.21875 48.921875 51.53125 44.890625 
Q 49.859375 40.875 45.40625 35.40625 
Q 44.1875 33.984375 37.640625 27.21875 
Q 31.109375 20.453125 19.1875 8.296875 
z
" id="DejaVuSans-32"/>
      </defs>
      <g transform="translate(290.204589 285.318437)scale(0.1 -0.1)">
       <use xlink:href="#DejaVuSans-32"/>
       <use x="63.623047" xlink:href="#DejaVuSans-30"/>
      </g>
     </g>
    </g>
    <g id="xtick_4">
     <g id="line2d_4">
      <g>
       <use style="stroke:#000000;stroke-width:0.8;" x="363.045123" xlink:href="#m84fc4062ad" y="270.72"/>
      </g>
     </g>
     <g id="text_4">
      <!-- 30 -->
      <defs>
       <path d="M 40.578125 39.3125 
Q 47.65625 37.796875 51.625 33 
Q 55.609375 28.21875 55.609375 21.1875 
Q 55.609375 10.40625 48.1875 4.484375 
Q 40.765625 -1.421875 27.09375 -1.421875 
Q 22.515625 -1.421875 17.65625 -0.515625 
Q 12.796875 0.390625 7.625 2.203125 
L 7.625 11.71875 
Q 11.71875 9.328125 16.59375 8.109375 
Q 21.484375 6.890625 26.8125 6.890625 
Q 36.078125 6.890625 40.9375 10.546875 
Q 45.796875 14.203125 45.796875 21.1875 
Q 45.796875 27.640625 41.28125 31.265625 
Q 36.765625 34.90625 28.71875 34.90625 
L 20.21875 34.90625 
L 20.21875 43.015625 
L 29.109375 43.015625 
Q 36.375 43.015625 40.234375 45.921875 
Q 44.09375 48.828125 44.09375 54.296875 
Q 44.09375 59.90625 40.109375 62.90625 
Q 36.140625 65.921875 28.71875 65.921875 
Q 24.65625 65.921875 20.015625 65.03125 
Q 15.375 64.15625 9.8125 62.3125 
L 9.8125 71.09375 
Q 15.4375 72.65625 20.34375 73.4375 
Q 25.25 74.21875 29.59375 74.21875 
Q 40.828125 74.21875 47.359375 69.109375 
Q 53.90625 64.015625 53.90625 55.328125 
Q 53.90625 49.265625 50.4375 45.09375 
Q 46.96875 40.921875 40.578125 39.3125 
z
" id="DejaVuSans-33"/>
      </defs>
      <g transform="translate(356.682623 285.318437)scale(0.1 -0.1)">
       <use xlink:href="#DejaVuSans-33"/>
       <use x="63.623047" xlink:href="#DejaVuSans-30"/>
      </g>
     </g>
    </g>
    <g id="xtick_5">
     <g id="line2d_5">
      <g>
       <use style="stroke:#000000;stroke-width:0.8;" x="429.523157" xlink:href="#m84fc4062ad" y="270.72"/>
      </g>
     </g>
     <g id="text_5">
      <!-- 40 -->
      <defs>
       <path d="M 37.796875 64.3125 
L 12.890625 25.390625 
L 37.796875 25.390625 
z
M 35.203125 72.90625 
L 47.609375 72.90625 
L 47.609375 25.390625 
L 58.015625 25.390625 
L 58.015625 17.1875 
L 47.609375 17.1875 
L 47.609375 0 
L 37.796875 0 
L 37.796875 17.1875 
L 4.890625 17.1875 
L 4.890625 26.703125 
z
" id="DejaVuSans-34"/>
      </defs>
      <g transform="translate(423.160657 285.318437)scale(0.1 -0.1)">
       <use xlink:href="#DejaVuSans-34"/>
       <use x="63.623047" xlink:href="#DejaVuSans-30"/>
      </g>
     </g>
    </g>
    <g id="xtick_6">
     <g id="line2d_6">
      <g>
       <use style="stroke:#000000;stroke-width:0.8;" x="496.001191" xlink:href="#m84fc4062ad" y="270.72"/>
      </g>
     </g>
     <g id="text_6">
      <!-- 50 -->
      <defs>
       <path d="M 10.796875 72.90625 
L 49.515625 72.90625 
L 49.515625 64.59375 
L 19.828125 64.59375 
L 19.828125 46.734375 
Q 21.96875 47.46875 24.109375 47.828125 
Q 26.265625 48.1875 28.421875 48.1875 
Q 40.625 48.1875 47.75 41.5 
Q 54.890625 34.8125 54.890625 23.390625 
Q 54.890625 11.625 47.5625 5.09375 
Q 40.234375 -1.421875 26.90625 -1.421875 
Q 22.3125 -1.421875 17.546875 -0.640625 
Q 12.796875 0.140625 7.71875 1.703125 
L 7.71875 11.625 
Q 12.109375 9.234375 16.796875 8.0625 
Q 21.484375 6.890625 26.703125 6.890625 
Q 35.15625 6.890625 40.078125 11.328125 
Q 45.015625 15.765625 45.015625 23.390625 
Q 45.015625 31 40.078125 35.4375 
Q 35.15625 39.890625 26.703125 39.890625 
Q 22.75 39.890625 18.8125 39.015625 
Q 14.890625 38.140625 10.796875 36.28125 
z
" id="DejaVuSans-35"/>
      </defs>
      <g transform="translate(489.638691 285.318437)scale(0.1 -0.1)">
       <use xlink:href="#DejaVuSans-35"/>
       <use x="63.623047" xlink:href="#DejaVuSans-30"/>
      </g>
     </g>
    </g>
    <g id="xtick_7">
     <g id="line2d_7">
      <g>
       <use style="stroke:#000000;stroke-width:0.8;" x="562.479226" xlink:href="#m84fc4062ad" y="270.72"/>
      </g>
     </g>
     <g id="text_7">
      <!-- 60 -->
      <defs>
       <path d="M 33.015625 40.375 
Q 26.375 40.375 22.484375 35.828125 
Q 18.609375 31.296875 18.609375 23.390625 
Q 18.609375 15.53125 22.484375 10.953125 
Q 26.375 6.390625 33.015625 6.390625 
Q 39.65625 6.390625 43.53125 10.953125 
Q 47.40625 15.53125 47.40625 23.390625 
Q 47.40625 31.296875 43.53125 35.828125 
Q 39.65625 40.375 33.015625 40.375 
z
M 52.59375 71.296875 
L 52.59375 62.3125 
Q 48.875 64.0625 45.09375 64.984375 
Q 41.3125 65.921875 37.59375 65.921875 
Q 27.828125 65.921875 22.671875 59.328125 
Q 17.53125 52.734375 16.796875 39.40625 
Q 19.671875 43.65625 24.015625 45.921875 
Q 28.375 48.1875 33.59375 48.1875 
Q 44.578125 48.1875 50.953125 41.515625 
Q 57.328125 34.859375 57.328125 23.390625 
Q 57.328125 12.15625 50.6875 5.359375 
Q 44.046875 -1.421875 33.015625 -1.421875 
Q 20.359375 -1.421875 13.671875 8.265625 
Q 6.984375 17.96875 6.984375 36.375 
Q 6.984375 53.65625 15.1875 63.9375 
Q 23.390625 74.21875 37.203125 74.21875 
Q 40.921875 74.21875 44.703125 73.484375 
Q 48.484375 72.75 52.59375 71.296875 
z
" id="DejaVuSans-36"/>
      </defs>
      <g transform="translate(556.116726 285.318437)scale(0.1 -0.1)">
       <use xlink:href="#DejaVuSans-36"/>
       <use x="63.623047" xlink:href="#DejaVuSans-30"/>
      </g>
     </g>
    </g>
    <g id="xtick_8">
     <g id="line2d_8">
      <g>
       <use style="stroke:#000000;stroke-width:0.8;" x="628.95726" xlink:href="#m84fc4062ad" y="270.72"/>
      </g>
     </g>
     <g id="text_8">
      <!-- 70 -->
      <defs>
       <path d="M 8.203125 72.90625 
L 55.078125 72.90625 
L 55.078125 68.703125 
L 28.609375 0 
L 18.3125 0 
L 43.21875 64.59375 
L 8.203125 64.59375 
z
" id="DejaVuSans-37"/>
      </defs>
      <g transform="translate(622.59476 285.318437)scale(0.1 -0.1)">
       <use xlink:href="#DejaVuSans-37"/>
       <use x="63.623047" xlink:href="#DejaVuSans-30"/>
      </g>
     </g>
    </g>
    <g id="xtick_9">
     <g id="line2d_9">
      <g>
       <use style="stroke:#000000;stroke-width:0.8;" x="695.435294" xlink:href="#m84fc4062ad" y="270.72"/>
      </g>
     </g>
     <g id="text_9">
      <!-- 80 -->
      <defs>
       <path d="M 31.78125 34.625 
Q 24.75 34.625 20.71875 30.859375 
Q 16.703125 27.09375 16.703125 20.515625 
Q 16.703125 13.921875 20.71875 10.15625 
Q 24.75 6.390625 31.78125 6.390625 
Q 38.8125 6.390625 42.859375 10.171875 
Q 46.921875 13.96875 46.921875 20.515625 
Q 46.921875 27.09375 42.890625 30.859375 
Q 38.875 34.625 31.78125 34.625 
z
M 21.921875 38.8125 
Q 15.578125 40.375 12.03125 44.71875 
Q 8.5 49.078125 8.5 55.328125 
Q 8.5 64.0625 14.71875 69.140625 
Q 20.953125 74.21875 31.78125 74.21875 
Q 42.671875 74.21875 48.875 69.140625 
Q 55.078125 64.0625 55.078125 55.328125 
Q 55.078125 49.078125 51.53125 44.71875 
Q 48 40.375 41.703125 38.8125 
Q 48.828125 37.15625 52.796875 32.3125 
Q 56.78125 27.484375 56.78125 20.515625 
Q 56.78125 9.90625 50.3125 4.234375 
Q 43.84375 -1.421875 31.78125 -1.421875 
Q 19.734375 -1.421875 13.25 4.234375 
Q 6.78125 9.90625 6.78125 20.515625 
Q 6.78125 27.484375 10.78125 32.3125 
Q 14.796875 37.15625 21.921875 38.8125 
z
M 18.3125 54.390625 
Q 18.3125 48.734375 21.84375 45.5625 
Q 25.390625 42.390625 31.78125 42.390625 
Q 38.140625 42.390625 41.71875 45.5625 
Q 45.3125 48.734375 45.3125 54.390625 
Q 45.3125 60.0625 41.71875 63.234375 
Q 38.140625 66.40625 31.78125 66.40625 
Q 25.390625 66.40625 21.84375 63.234375 
Q 18.3125 60.0625 18.3125 54.390625 
z
" id="DejaVuSans-38"/>
      </defs>
      <g transform="translate(689.072794 285.318437)scale(0.1 -0.1)">
       <use xlink:href="#DejaVuSans-38"/>
       <use x="63.623047" xlink:href="#DejaVuSans-30"/>
      </g>
     </g>
    </g>
    <g id="text_10">
     <!-- number of clusters -->
     <defs>
      <path d="M 54.890625 33.015625 
L 54.890625 0 
L 45.90625 0 
L 45.90625 32.71875 
Q 45.90625 40.484375 42.875 44.328125 
Q 39.84375 48.1875 33.796875 48.1875 
Q 26.515625 48.1875 22.3125 43.546875 
Q 18.109375 38.921875 18.109375 30.90625 
L 18.109375 0 
L 9.078125 0 
L 9.078125 54.6875 
L 18.109375 54.6875 
L 18.109375 46.1875 
Q 21.34375 51.125 25.703125 53.5625 
Q 30.078125 56 35.796875 56 
Q 45.21875 56 50.046875 50.171875 
Q 54.890625 44.34375 54.890625 33.015625 
z
" id="DejaVuSans-6e"/>
      <path d="M 8.5 21.578125 
L 8.5 54.6875 
L 17.484375 54.6875 
L 17.484375 21.921875 
Q 17.484375 14.15625 20.5 10.265625 
Q 23.53125 6.390625 29.59375 6.390625 
Q 36.859375 6.390625 41.078125 11.03125 
Q 45.3125 15.671875 45.3125 23.6875 
L 45.3125 54.6875 
L 54.296875 54.6875 
L 54.296875 0 
L 45.3125 0 
L 45.3125 8.40625 
Q 42.046875 3.421875 37.71875 1 
Q 33.40625 -1.421875 27.6875 -1.421875 
Q 18.265625 -1.421875 13.375 4.4375 
Q 8.5 10.296875 8.5 21.578125 
z
M 31.109375 56 
z
" id="DejaVuSans-75"/>
      <path d="M 52 44.1875 
Q 55.375 50.25 60.0625 53.125 
Q 64.75 56 71.09375 56 
Q 79.640625 56 84.28125 50.015625 
Q 88.921875 44.046875 88.921875 33.015625 
L 88.921875 0 
L 79.890625 0 
L 79.890625 32.71875 
Q 79.890625 40.578125 77.09375 44.375 
Q 74.3125 48.1875 68.609375 48.1875 
Q 61.625 48.1875 57.5625 43.546875 
Q 53.515625 38.921875 53.515625 30.90625 
L 53.515625 0 
L 44.484375 0 
L 44.484375 32.71875 
Q 44.484375 40.625 41.703125 44.40625 
Q 38.921875 48.1875 33.109375 48.1875 
Q 26.21875 48.1875 22.15625 43.53125 
Q 18.109375 38.875 18.109375 30.90625 
L 18.109375 0 
L 9.078125 0 
L 9.078125 54.6875 
L 18.109375 54.6875 
L 18.109375 46.1875 
Q 21.1875 51.21875 25.484375 53.609375 
Q 29.78125 56 35.6875 56 
Q 41.65625 56 45.828125 52.96875 
Q 50 49.953125 52 44.1875 
z
" id="DejaVuSans-6d"/>
      <path d="M 48.6875 27.296875 
Q 48.6875 37.203125 44.609375 42.84375 
Q 40.53125 48.484375 33.40625 48.484375 
Q 26.265625 48.484375 22.1875 42.84375 
Q 18.109375 37.203125 18.109375 27.296875 
Q 18.109375 17.390625 22.1875 11.75 
Q 26.265625 6.109375 33.40625 6.109375 
Q 40.53125 6.109375 44.609375 11.75 
Q 48.6875 17.390625 48.6875 27.296875 
z
M 18.109375 46.390625 
Q 20.953125 51.265625 25.265625 53.625 
Q 29.59375 56 35.59375 56 
Q 45.5625 56 51.78125 48.09375 
Q 58.015625 40.1875 58.015625 27.296875 
Q 58.015625 14.40625 51.78125 6.484375 
Q 45.5625 -1.421875 35.59375 -1.421875 
Q 29.59375 -1.421875 25.265625 0.953125 
Q 20.953125 3.328125 18.109375 8.203125 
L 18.109375 0 
L 9.078125 0 
L 9.078125 75.984375 
L 18.109375 75.984375 
z
" id="DejaVuSans-62"/>
      <path d="M 56.203125 29.59375 
L 56.203125 25.203125 
L 14.890625 25.203125 
Q 15.484375 15.921875 20.484375 11.0625 
Q 25.484375 6.203125 34.421875 6.203125 
Q 39.59375 6.203125 44.453125 7.46875 
Q 49.3125 8.734375 54.109375 11.28125 
L 54.109375 2.78125 
Q 49.265625 0.734375 44.1875 -0.34375 
Q 39.109375 -1.421875 33.890625 -1.421875 
Q 20.796875 -1.421875 13.15625 6.1875 
Q 5.515625 13.8125 5.515625 26.8125 
Q 5.515625 40.234375 12.765625 48.109375 
Q 20.015625 56 32.328125 56 
Q 43.359375 56 49.78125 48.890625 
Q 56.203125 41.796875 56.203125 29.59375 
z
M 47.21875 32.234375 
Q 47.125 39.59375 43.09375 43.984375 
Q 39.0625 48.390625 32.421875 48.390625 
Q 24.90625 48.390625 20.390625 44.140625 
Q 15.875 39.890625 15.1875 32.171875 
z
" id="DejaVuSans-65"/>
      <path d="M 41.109375 46.296875 
Q 39.59375 47.171875 37.8125 47.578125 
Q 36.03125 48 33.890625 48 
Q 26.265625 48 22.1875 43.046875 
Q 18.109375 38.09375 18.109375 28.8125 
L 18.109375 0 
L 9.078125 0 
L 9.078125 54.6875 
L 18.109375 54.6875 
L 18.109375 46.1875 
Q 20.953125 51.171875 25.484375 53.578125 
Q 30.03125 56 36.53125 56 
Q 37.453125 56 38.578125 55.875 
Q 39.703125 55.765625 41.0625 55.515625 
z
" id="DejaVuSans-72"/>
      <path id="DejaVuSans-20"/>
      <path d="M 30.609375 48.390625 
Q 23.390625 48.390625 19.1875 42.75 
Q 14.984375 37.109375 14.984375 27.296875 
Q 14.984375 17.484375 19.15625 11.84375 
Q 23.34375 6.203125 30.609375 6.203125 
Q 37.796875 6.203125 41.984375 11.859375 
Q 46.1875 17.53125 46.1875 27.296875 
Q 46.1875 37.015625 41.984375 42.703125 
Q 37.796875 48.390625 30.609375 48.390625 
z
M 30.609375 56 
Q 42.328125 56 49.015625 48.375 
Q 55.71875 40.765625 55.71875 27.296875 
Q 55.71875 13.875 49.015625 6.21875 
Q 42.328125 -1.421875 30.609375 -1.421875 
Q 18.84375 -1.421875 12.171875 6.21875 
Q 5.515625 13.875 5.515625 27.296875 
Q 5.515625 40.765625 12.171875 48.375 
Q 18.84375 56 30.609375 56 
z
" id="DejaVuSans-6f"/>
      <path d="M 37.109375 75.984375 
L 37.109375 68.5 
L 28.515625 68.5 
Q 23.6875 68.5 21.796875 66.546875 
Q 19.921875 64.59375 19.921875 59.515625 
L 19.921875 54.6875 
L 34.71875 54.6875 
L 34.71875 47.703125 
L 19.921875 47.703125 
L 19.921875 0 
L 10.890625 0 
L 10.890625 47.703125 
L 2.296875 47.703125 
L 2.296875 54.6875 
L 10.890625 54.6875 
L 10.890625 58.5 
Q 10.890625 67.625 15.140625 71.796875 
Q 19.390625 75.984375 28.609375 75.984375 
z
" id="DejaVuSans-66"/>
      <path d="M 48.78125 52.59375 
L 48.78125 44.1875 
Q 44.96875 46.296875 41.140625 47.34375 
Q 37.3125 48.390625 33.40625 48.390625 
Q 24.65625 48.390625 19.8125 42.84375 
Q 14.984375 37.3125 14.984375 27.296875 
Q 14.984375 17.28125 19.8125 11.734375 
Q 24.65625 6.203125 33.40625 6.203125 
Q 37.3125 6.203125 41.140625 7.25 
Q 44.96875 8.296875 48.78125 10.40625 
L 48.78125 2.09375 
Q 45.015625 0.34375 40.984375 -0.53125 
Q 36.96875 -1.421875 32.421875 -1.421875 
Q 20.0625 -1.421875 12.78125 6.34375 
Q 5.515625 14.109375 5.515625 27.296875 
Q 5.515625 40.671875 12.859375 48.328125 
Q 20.21875 56 33.015625 56 
Q 37.15625 56 41.109375 55.140625 
Q 45.0625 54.296875 48.78125 52.59375 
z
" id="DejaVuSans-63"/>
      <path d="M 9.421875 75.984375 
L 18.40625 75.984375 
L 18.40625 0 
L 9.421875 0 
z
" id="DejaVuSans-6c"/>
      <path d="M 44.28125 53.078125 
L 44.28125 44.578125 
Q 40.484375 46.53125 36.375 47.5 
Q 32.28125 48.484375 27.875 48.484375 
Q 21.1875 48.484375 17.84375 46.4375 
Q 14.5 44.390625 14.5 40.28125 
Q 14.5 37.15625 16.890625 35.375 
Q 19.28125 33.59375 26.515625 31.984375 
L 29.59375 31.296875 
Q 39.15625 29.25 43.1875 25.515625 
Q 47.21875 21.78125 47.21875 15.09375 
Q 47.21875 7.46875 41.1875 3.015625 
Q 35.15625 -1.421875 24.609375 -1.421875 
Q 20.21875 -1.421875 15.453125 -0.5625 
Q 10.6875 0.296875 5.421875 2 
L 5.421875 11.28125 
Q 10.40625 8.6875 15.234375 7.390625 
Q 20.0625 6.109375 24.8125 6.109375 
Q 31.15625 6.109375 34.5625 8.28125 
Q 37.984375 10.453125 37.984375 14.40625 
Q 37.984375 18.0625 35.515625 20.015625 
Q 33.0625 21.96875 24.703125 23.78125 
L 21.578125 24.515625 
Q 13.234375 26.265625 9.515625 29.90625 
Q 5.8125 33.546875 5.8125 39.890625 
Q 5.8125 47.609375 11.28125 51.796875 
Q 16.75 56 26.8125 56 
Q 31.78125 56 36.171875 55.265625 
Q 40.578125 54.546875 44.28125 53.078125 
z
" id="DejaVuSans-73"/>
      <path d="M 18.3125 70.21875 
L 18.3125 54.6875 
L 36.8125 54.6875 
L 36.8125 47.703125 
L 18.3125 47.703125 
L 18.3125 18.015625 
Q 18.3125 11.328125 20.140625 9.421875 
Q 21.96875 7.515625 27.59375 7.515625 
L 36.8125 7.515625 
L 36.8125 0 
L 27.59375 0 
Q 17.1875 0 13.234375 3.875 
Q 9.28125 7.765625 9.28125 18.015625 
L 9.28125 47.703125 
L 2.6875 47.703125 
L 2.6875 54.6875 
L 9.28125 54.6875 
L 9.28125 70.21875 
z
" id="DejaVuSans-74"/>
     </defs>
     <g transform="translate(385.726746 298.996562)scale(0.1 -0.1)">
      <use xlink:href="#DejaVuSans-6e"/>
      <use x="63.378906" xlink:href="#DejaVuSans-75"/>
      <use x="126.757812" xlink:href="#DejaVuSans-6d"/>
      <use x="224.169922" xlink:href="#DejaVuSans-62"/>
      <use x="287.646484" xlink:href="#DejaVuSans-65"/>
      <use x="349.169922" xlink:href="#DejaVuSans-72"/>
      <use x="390.283203" xlink:href="#DejaVuSans-20"/>
      <use x="422.070312" xlink:href="#DejaVuSans-6f"/>
      <use x="483.251953" xlink:href="#DejaVuSans-66"/>
      <use x="518.457031" xlink:href="#DejaVuSans-20"/>
      <use x="550.244141" xlink:href="#DejaVuSans-63"/>
      <use x="605.224609" xlink:href="#DejaVuSans-6c"/>
      <use x="633.007812" xlink:href="#DejaVuSans-75"/>
      <use x="696.386719" xlink:href="#DejaVuSans-73"/>
      <use x="748.486328" xlink:href="#DejaVuSans-74"/>
      <use x="787.695312" xlink:href="#DejaVuSans-65"/>
      <use x="849.21875" xlink:href="#DejaVuSans-72"/>
      <use x="890.332031" xlink:href="#DejaVuSans-73"/>
     </g>
    </g>
   </g>
   <g id="matplotlib.axis_2">
    <g id="ytick_1">
     <g id="line2d_10">
      <defs>
       <path d="M 0 0 
L -3.5 0 
" id="m9bd532a069" style="stroke:#000000;stroke-width:0.8;"/>
      </defs>
      <g>
       <use style="stroke:#000000;stroke-width:0.8;" x="144" xlink:href="#m9bd532a069" y="266.843077"/>
      </g>
     </g>
     <g id="text_11">
      <!-- 0.0 -->
      <defs>
       <path d="M 10.6875 12.40625 
L 21 12.40625 
L 21 0 
L 10.6875 0 
z
" id="DejaVuSans-2e"/>
      </defs>
      <g transform="translate(121.096875 270.642296)scale(0.1 -0.1)">
       <use xlink:href="#DejaVuSans-30"/>
       <use x="63.623047" xlink:href="#DejaVuSans-2e"/>
       <use x="95.410156" xlink:href="#DejaVuSans-30"/>
      </g>
     </g>
    </g>
    <g id="ytick_2">
     <g id="line2d_11">
      <g>
       <use style="stroke:#000000;stroke-width:0.8;" x="144" xlink:href="#m9bd532a069" y="228.073846"/>
      </g>
     </g>
     <g id="text_12">
      <!-- 0.2 -->
      <g transform="translate(121.096875 231.873065)scale(0.1 -0.1)">
       <use xlink:href="#DejaVuSans-30"/>
       <use x="63.623047" xlink:href="#DejaVuSans-2e"/>
       <use x="95.410156" xlink:href="#DejaVuSans-32"/>
      </g>
     </g>
    </g>
    <g id="ytick_3">
     <g id="line2d_12">
      <g>
       <use style="stroke:#000000;stroke-width:0.8;" x="144" xlink:href="#m9bd532a069" y="189.304615"/>
      </g>
     </g>
     <g id="text_13">
      <!-- 0.4 -->
      <g transform="translate(121.096875 193.103834)scale(0.1 -0.1)">
       <use xlink:href="#DejaVuSans-30"/>
       <use x="63.623047" xlink:href="#DejaVuSans-2e"/>
       <use x="95.410156" xlink:href="#DejaVuSans-34"/>
      </g>
     </g>
    </g>
    <g id="ytick_4">
     <g id="line2d_13">
      <g>
       <use style="stroke:#000000;stroke-width:0.8;" x="144" xlink:href="#m9bd532a069" y="150.535385"/>
      </g>
     </g>
     <g id="text_14">
      <!-- 0.6 -->
      <g transform="translate(121.096875 154.334603)scale(0.1 -0.1)">
       <use xlink:href="#DejaVuSans-30"/>
       <use x="63.623047" xlink:href="#DejaVuSans-2e"/>
       <use x="95.410156" xlink:href="#DejaVuSans-36"/>
      </g>
     </g>
    </g>
    <g id="ytick_5">
     <g id="line2d_14">
      <g>
       <use style="stroke:#000000;stroke-width:0.8;" x="144" xlink:href="#m9bd532a069" y="111.766154"/>
      </g>
     </g>
     <g id="text_15">
      <!-- 0.8 -->
      <g transform="translate(121.096875 115.565373)scale(0.1 -0.1)">
       <use xlink:href="#DejaVuSans-30"/>
       <use x="63.623047" xlink:href="#DejaVuSans-2e"/>
       <use x="95.410156" xlink:href="#DejaVuSans-38"/>
      </g>
     </g>
    </g>
    <g id="ytick_6">
     <g id="line2d_15">
      <g>
       <use style="stroke:#000000;stroke-width:0.8;" x="144" xlink:href="#m9bd532a069" y="72.996923"/>
      </g>
     </g>
     <g id="text_16">
      <!-- 1.0 -->
      <g transform="translate(121.096875 76.796142)scale(0.1 -0.1)">
       <use xlink:href="#DejaVuSans-31"/>
       <use x="63.623047" xlink:href="#DejaVuSans-2e"/>
       <use x="95.410156" xlink:href="#DejaVuSans-30"/>
      </g>
     </g>
    </g>
    <g id="text_17">
     <!-- MR -->
     <defs>
      <path d="M 9.8125 72.90625 
L 24.515625 72.90625 
L 43.109375 23.296875 
L 61.8125 72.90625 
L 76.515625 72.90625 
L 76.515625 0 
L 66.890625 0 
L 66.890625 64.015625 
L 48.09375 14.015625 
L 38.1875 14.015625 
L 19.390625 64.015625 
L 19.390625 0 
L 9.8125 0 
z
" id="DejaVuSans-4d"/>
      <path d="M 44.390625 34.1875 
Q 47.5625 33.109375 50.5625 29.59375 
Q 53.5625 26.078125 56.59375 19.921875 
L 66.609375 0 
L 56 0 
L 46.6875 18.703125 
Q 43.0625 26.03125 39.671875 28.421875 
Q 36.28125 30.8125 30.421875 30.8125 
L 19.671875 30.8125 
L 19.671875 0 
L 9.8125 0 
L 9.8125 72.90625 
L 32.078125 72.90625 
Q 44.578125 72.90625 50.734375 67.671875 
Q 56.890625 62.453125 56.890625 51.90625 
Q 56.890625 45.015625 53.6875 40.46875 
Q 50.484375 35.9375 44.390625 34.1875 
z
M 19.671875 64.796875 
L 19.671875 38.921875 
L 32.078125 38.921875 
Q 39.203125 38.921875 42.84375 42.21875 
Q 46.484375 45.515625 46.484375 51.90625 
Q 46.484375 58.296875 42.84375 61.546875 
Q 39.203125 64.796875 32.078125 64.796875 
z
" id="DejaVuSans-52"/>
     </defs>
     <g transform="translate(115.017187 177.708281)rotate(-90)scale(0.1 -0.1)">
      <use xlink:href="#DejaVuSans-4d"/>
      <use x="86.279297" xlink:href="#DejaVuSans-52"/>
     </g>
    </g>
   </g>
   <g id="line2d_16">
    <path clip-path="url(#pbeefcfa434)" d="M 456.114371 174.325594 
L 449.466567 178.731189 
L 442.818764 183.136783 
L 436.170961 187.542378 
L 429.523157 191.947972 
L 422.875354 196.353566 
L 416.22755 200.759161 
L 409.579747 205.164755 
L 402.931943 209.57035 
L 396.28414 213.975944 
L 389.636337 218.381538 
L 382.988533 218.381538 
L 376.34073 222.787133 
L 369.692926 213.975944 
L 363.045123 218.381538 
L 356.397319 222.787133 
L 349.749516 227.192727 
L 343.101713 231.598322 
L 336.453909 236.003916 
L 329.806106 240.40951 
L 323.158302 244.815105 
L 316.510499 249.220699 
L 309.862695 253.626294 
L 303.214892 240.40951 
L 296.567089 231.598322 
L 289.919285 213.975944 
L 283.271482 196.353566 
L 276.623678 187.542378 
L 269.975875 169.92 
L 263.328071 169.92 
L 256.680268 152.297622 
L 250.032465 134.675245 
L 243.384661 125.864056 
L 236.736858 117.052867 
L 230.089054 117.052867 
L 223.441251 108.241678 
L 216.793448 90.619301 
L 210.145644 90.619301 
L 203.497841 90.619301 
L 196.850037 81.808112 
L 190.202234 81.808112 
L 183.55443 81.808112 
L 176.906627 81.808112 
L 170.258824 72.996923 
" style="fill:none;stroke:#ff0029;stroke-linecap:square;stroke-width:1.5;"/>
   </g>
   <g id="line2d_17">
    <path clip-path="url(#pbeefcfa434)" d="M 442.818764 252.996923 
L 436.170961 72.996923 
L 429.523157 72.996923 
L 422.875354 72.996923 
L 416.22755 72.996923 
L 409.579747 72.996923 
L 402.931943 72.996923 
L 396.28414 72.996923 
L 389.636337 72.996923 
L 382.988533 72.996923 
L 376.34073 72.996923 
L 369.692926 72.996923 
L 363.045123 72.996923 
L 356.397319 72.996923 
L 349.749516 72.996923 
L 343.101713 72.996923 
L 336.453909 72.996923 
L 329.806106 72.996923 
L 323.158302 72.996923 
L 316.510499 72.996923 
L 309.862695 72.996923 
L 303.214892 72.996923 
L 296.567089 72.996923 
L 289.919285 72.996923 
L 283.271482 72.996923 
L 276.623678 72.996923 
L 269.975875 72.996923 
L 263.328071 72.996923 
L 256.680268 72.996923 
L 250.032465 72.996923 
L 243.384661 72.996923 
L 236.736858 72.996923 
L 230.089054 72.996923 
L 223.441251 72.996923 
L 216.793448 72.996923 
L 210.145644 72.996923 
L 203.497841 72.996923 
L 196.850037 72.996923 
L 190.202234 72.996923 
L 183.55443 72.996923 
L 176.906627 72.996923 
L 170.258824 72.996923 
" style="fill:none;stroke:#cdff00;stroke-linecap:square;stroke-width:1.5;"/>
   </g>
   <g id="line2d_18">
    <path clip-path="url(#pbeefcfa434)" d="M 456.114371 236.003916 
L 449.466567 72.996923 
L 442.818764 72.996923 
L 436.170961 72.996923 
L 429.523157 72.996923 
L 422.875354 72.996923 
L 416.22755 72.996923 
L 409.579747 72.996923 
L 402.931943 72.996923 
L 396.28414 72.996923 
L 389.636337 72.996923 
L 382.988533 72.996923 
L 376.34073 72.996923 
L 369.692926 72.996923 
L 363.045123 72.996923 
L 356.397319 72.996923 
L 349.749516 72.996923 
L 343.101713 72.996923 
L 336.453909 72.996923 
L 329.806106 72.996923 
L 323.158302 72.996923 
L 316.510499 72.996923 
L 309.862695 72.996923 
L 303.214892 72.996923 
L 296.567089 72.996923 
L 289.919285 72.996923 
L 283.271482 72.996923 
L 276.623678 72.996923 
L 269.975875 72.996923 
L 263.328071 72.996923 
L 256.680268 72.996923 
L 250.032465 72.996923 
L 243.384661 72.996923 
L 236.736858 72.996923 
L 230.089054 72.996923 
L 223.441251 72.996923 
L 216.793448 72.996923 
L 210.145644 72.996923 
L 203.497841 72.996923 
L 196.850037 72.996923 
L 190.202234 72.996923 
L 183.55443 72.996923 
L 176.906627 72.996923 
L 170.258824 72.996923 
" style="fill:none;stroke:#00ff8c;stroke-linecap:square;stroke-width:1.5;"/>
   </g>
   <g id="line2d_19">
    <path clip-path="url(#pbeefcfa434)" d="M 230.089054 111.766154 
L 223.441251 150.535385 
L 216.793448 189.304615 
L 210.145644 189.304615 
L 203.497841 208.689231 
L 196.850037 208.689231 
L 190.202234 189.304615 
L 183.55443 189.304615 
L 176.906627 189.304615 
L 170.258824 72.996923 
" style="fill:none;stroke:#0018ff;stroke-linecap:square;stroke-width:1.5;"/>
   </g>
   <g id="line2d_20">
    <path clip-path="url(#pbeefcfa434)" d="M 695.435294 77.843077 
L 688.787491 77.843077 
L 682.139687 77.843077 
L 675.491884 80.266154 
L 668.84408 77.843077 
L 662.196277 77.843077 
L 655.548474 85.112308 
L 648.90067 85.112308 
L 642.252867 82.689231 
L 635.605063 80.266154 
L 628.95726 87.535385 
L 622.309456 85.112308 
L 615.661653 89.958462 
L 609.01385 92.381538 
L 602.366046 97.227692 
L 595.718243 94.804615 
L 589.070439 94.804615 
L 582.422636 111.766154 
L 575.774832 106.92 
L 569.127029 99.650769 
L 562.479226 109.343077 
L 555.831422 116.612308 
L 549.183619 116.612308 
L 542.535815 123.881538 
L 535.888012 116.612308 
L 529.240208 126.304615 
L 522.592405 131.150769 
L 515.944602 126.304615 
L 509.296798 126.304615 
L 502.648995 131.150769 
L 496.001191 128.727692 
L 489.353388 148.112308 
L 482.705585 138.42 
L 476.057781 140.843077 
L 469.409978 148.112308 
L 462.762174 157.804615 
L 456.114371 143.266154 
L 449.466567 155.381538 
L 442.818764 152.958462 
L 436.170961 162.650769 
L 429.523157 157.804615 
L 422.875354 167.496923 
L 416.22755 162.650769 
L 409.579747 165.073846 
L 402.931943 169.92 
L 396.28414 177.189231 
L 389.636337 160.227692 
L 382.988533 172.343077 
L 376.34073 172.343077 
L 369.692926 177.189231 
L 363.045123 172.343077 
L 356.397319 162.650769 
L 349.749516 169.92 
L 343.101713 174.766154 
L 336.453909 172.343077 
L 329.806106 172.343077 
L 323.158302 167.496923 
L 316.510499 174.766154 
L 309.862695 174.766154 
L 303.214892 72.996923 
L 296.567089 72.996923 
L 289.919285 72.996923 
L 283.271482 72.996923 
L 276.623678 72.996923 
L 269.975875 72.996923 
L 263.328071 72.996923 
L 256.680268 72.996923 
L 250.032465 72.996923 
L 243.384661 72.996923 
L 236.736858 72.996923 
L 230.089054 72.996923 
L 223.441251 72.996923 
L 216.793448 72.996923 
L 210.145644 72.996923 
L 203.497841 72.996923 
L 196.850037 72.996923 
L 190.202234 72.996923 
L 183.55443 72.996923 
L 176.906627 72.996923 
L 170.258824 72.996923 
" style="fill:none;stroke:#ff00bf;stroke-linecap:square;stroke-width:1.5;"/>
   </g>
   <g id="patch_3">
    <path d="M 144 270.72 
L 144 69.12 
" style="fill:none;stroke:#000000;stroke-linecap:square;stroke-linejoin:miter;stroke-width:0.8;"/>
   </g>
   <g id="patch_4">
    <path d="M 721.694118 270.72 
L 721.694118 69.12 
" style="fill:none;stroke:#000000;stroke-linecap:square;stroke-linejoin:miter;stroke-width:0.8;"/>
   </g>
   <g id="patch_5">
    <path d="M 144 270.72 
L 721.694118 270.72 
" style="fill:none;stroke:#000000;stroke-linecap:square;stroke-linejoin:miter;stroke-width:0.8;"/>
   </g>
   <g id="patch_6">
    <path d="M 144 69.12 
L 721.694118 69.12 
" style="fill:none;stroke:#000000;stroke-linecap:square;stroke-linejoin:miter;stroke-width:0.8;"/>
   </g>
  </g>
  <g id="axes_2">
   <g id="patch_7">
    <path d="M 144 512.64 
L 406.588235 512.64 
L 406.588235 311.04 
L 144 311.04 
z
" style="fill:#ffffff;"/>
   </g>
   <g id="matplotlib.axis_3">
    <g id="xtick_10">
     <g id="line2d_21">
      <g>
       <use style="stroke:#000000;stroke-width:0.8;" x="152.9141" xlink:href="#m84fc4062ad" y="512.64"/>
      </g>
     </g>
     <g id="text_18">
      <!-- 0 -->
      <g transform="translate(149.73285 527.238438)scale(0.1 -0.1)">
       <use xlink:href="#DejaVuSans-30"/>
      </g>
     </g>
    </g>
    <g id="xtick_11">
     <g id="line2d_22">
      <g>
       <use style="stroke:#000000;stroke-width:0.8;" x="213.348677" xlink:href="#m84fc4062ad" y="512.64"/>
      </g>
     </g>
     <g id="text_19">
      <!-- 20 -->
      <g transform="translate(206.986177 527.238438)scale(0.1 -0.1)">
       <use xlink:href="#DejaVuSans-32"/>
       <use x="63.623047" xlink:href="#DejaVuSans-30"/>
      </g>
     </g>
    </g>
    <g id="xtick_12">
     <g id="line2d_23">
      <g>
       <use style="stroke:#000000;stroke-width:0.8;" x="273.783253" xlink:href="#m84fc4062ad" y="512.64"/>
      </g>
     </g>
     <g id="text_20">
      <!-- 40 -->
      <g transform="translate(267.420753 527.238438)scale(0.1 -0.1)">
       <use xlink:href="#DejaVuSans-34"/>
       <use x="63.623047" xlink:href="#DejaVuSans-30"/>
      </g>
     </g>
    </g>
    <g id="xtick_13">
     <g id="line2d_24">
      <g>
       <use style="stroke:#000000;stroke-width:0.8;" x="334.21783" xlink:href="#m84fc4062ad" y="512.64"/>
      </g>
     </g>
     <g id="text_21">
      <!-- 60 -->
      <g transform="translate(327.85533 527.238438)scale(0.1 -0.1)">
       <use xlink:href="#DejaVuSans-36"/>
       <use x="63.623047" xlink:href="#DejaVuSans-30"/>
      </g>
     </g>
    </g>
    <g id="xtick_14">
     <g id="line2d_25">
      <g>
       <use style="stroke:#000000;stroke-width:0.8;" x="394.652406" xlink:href="#m84fc4062ad" y="512.64"/>
      </g>
     </g>
     <g id="text_22">
      <!-- 80 -->
      <g transform="translate(388.289906 527.238438)scale(0.1 -0.1)">
       <use xlink:href="#DejaVuSans-38"/>
       <use x="63.623047" xlink:href="#DejaVuSans-30"/>
      </g>
     </g>
    </g>
    <g id="text_23">
     <!-- number of clusters -->
     <g transform="translate(228.173805 540.916563)scale(0.1 -0.1)">
      <use xlink:href="#DejaVuSans-6e"/>
      <use x="63.378906" xlink:href="#DejaVuSans-75"/>
      <use x="126.757812" xlink:href="#DejaVuSans-6d"/>
      <use x="224.169922" xlink:href="#DejaVuSans-62"/>
      <use x="287.646484" xlink:href="#DejaVuSans-65"/>
      <use x="349.169922" xlink:href="#DejaVuSans-72"/>
      <use x="390.283203" xlink:href="#DejaVuSans-20"/>
      <use x="422.070312" xlink:href="#DejaVuSans-6f"/>
      <use x="483.251953" xlink:href="#DejaVuSans-66"/>
      <use x="518.457031" xlink:href="#DejaVuSans-20"/>
      <use x="550.244141" xlink:href="#DejaVuSans-63"/>
      <use x="605.224609" xlink:href="#DejaVuSans-6c"/>
      <use x="633.007812" xlink:href="#DejaVuSans-75"/>
      <use x="696.386719" xlink:href="#DejaVuSans-73"/>
      <use x="748.486328" xlink:href="#DejaVuSans-74"/>
      <use x="787.695312" xlink:href="#DejaVuSans-65"/>
      <use x="849.21875" xlink:href="#DejaVuSans-72"/>
      <use x="890.332031" xlink:href="#DejaVuSans-73"/>
     </g>
    </g>
   </g>
   <g id="matplotlib.axis_4">
    <g id="ytick_7">
     <g id="line2d_26">
      <g>
       <use style="stroke:#000000;stroke-width:0.8;" x="144" xlink:href="#m9bd532a069" y="500.814382"/>
      </g>
     </g>
     <g id="text_24">
      <!-- 0.70 -->
      <g transform="translate(114.734375 504.6136)scale(0.1 -0.1)">
       <use xlink:href="#DejaVuSans-30"/>
       <use x="63.623047" xlink:href="#DejaVuSans-2e"/>
       <use x="95.410156" xlink:href="#DejaVuSans-37"/>
       <use x="159.033203" xlink:href="#DejaVuSans-30"/>
      </g>
     </g>
    </g>
    <g id="ytick_8">
     <g id="line2d_27">
      <g>
       <use style="stroke:#000000;stroke-width:0.8;" x="144" xlink:href="#m9bd532a069" y="470.712591"/>
      </g>
     </g>
     <g id="text_25">
      <!-- 0.75 -->
      <g transform="translate(114.734375 474.51181)scale(0.1 -0.1)">
       <use xlink:href="#DejaVuSans-30"/>
       <use x="63.623047" xlink:href="#DejaVuSans-2e"/>
       <use x="95.410156" xlink:href="#DejaVuSans-37"/>
       <use x="159.033203" xlink:href="#DejaVuSans-35"/>
      </g>
     </g>
    </g>
    <g id="ytick_9">
     <g id="line2d_28">
      <g>
       <use style="stroke:#000000;stroke-width:0.8;" x="144" xlink:href="#m9bd532a069" y="440.6108"/>
      </g>
     </g>
     <g id="text_26">
      <!-- 0.80 -->
      <g transform="translate(114.734375 444.410019)scale(0.1 -0.1)">
       <use xlink:href="#DejaVuSans-30"/>
       <use x="63.623047" xlink:href="#DejaVuSans-2e"/>
       <use x="95.410156" xlink:href="#DejaVuSans-38"/>
       <use x="159.033203" xlink:href="#DejaVuSans-30"/>
      </g>
     </g>
    </g>
    <g id="ytick_10">
     <g id="line2d_29">
      <g>
       <use style="stroke:#000000;stroke-width:0.8;" x="144" xlink:href="#m9bd532a069" y="410.509009"/>
      </g>
     </g>
     <g id="text_27">
      <!-- 0.85 -->
      <g transform="translate(114.734375 414.308228)scale(0.1 -0.1)">
       <use xlink:href="#DejaVuSans-30"/>
       <use x="63.623047" xlink:href="#DejaVuSans-2e"/>
       <use x="95.410156" xlink:href="#DejaVuSans-38"/>
       <use x="159.033203" xlink:href="#DejaVuSans-35"/>
      </g>
     </g>
    </g>
    <g id="ytick_11">
     <g id="line2d_30">
      <g>
       <use style="stroke:#000000;stroke-width:0.8;" x="144" xlink:href="#m9bd532a069" y="380.407218"/>
      </g>
     </g>
     <g id="text_28">
      <!-- 0.90 -->
      <defs>
       <path d="M 10.984375 1.515625 
L 10.984375 10.5 
Q 14.703125 8.734375 18.5 7.8125 
Q 22.3125 6.890625 25.984375 6.890625 
Q 35.75 6.890625 40.890625 13.453125 
Q 46.046875 20.015625 46.78125 33.40625 
Q 43.953125 29.203125 39.59375 26.953125 
Q 35.25 24.703125 29.984375 24.703125 
Q 19.046875 24.703125 12.671875 31.3125 
Q 6.296875 37.9375 6.296875 49.421875 
Q 6.296875 60.640625 12.9375 67.421875 
Q 19.578125 74.21875 30.609375 74.21875 
Q 43.265625 74.21875 49.921875 64.515625 
Q 56.59375 54.828125 56.59375 36.375 
Q 56.59375 19.140625 48.40625 8.859375 
Q 40.234375 -1.421875 26.421875 -1.421875 
Q 22.703125 -1.421875 18.890625 -0.6875 
Q 15.09375 0.046875 10.984375 1.515625 
z
M 30.609375 32.421875 
Q 37.25 32.421875 41.125 36.953125 
Q 45.015625 41.5 45.015625 49.421875 
Q 45.015625 57.28125 41.125 61.84375 
Q 37.25 66.40625 30.609375 66.40625 
Q 23.96875 66.40625 20.09375 61.84375 
Q 16.21875 57.28125 16.21875 49.421875 
Q 16.21875 41.5 20.09375 36.953125 
Q 23.96875 32.421875 30.609375 32.421875 
z
" id="DejaVuSans-39"/>
      </defs>
      <g transform="translate(114.734375 384.206437)scale(0.1 -0.1)">
       <use xlink:href="#DejaVuSans-30"/>
       <use x="63.623047" xlink:href="#DejaVuSans-2e"/>
       <use x="95.410156" xlink:href="#DejaVuSans-39"/>
       <use x="159.033203" xlink:href="#DejaVuSans-30"/>
      </g>
     </g>
    </g>
    <g id="ytick_12">
     <g id="line2d_31">
      <g>
       <use style="stroke:#000000;stroke-width:0.8;" x="144" xlink:href="#m9bd532a069" y="350.305427"/>
      </g>
     </g>
     <g id="text_29">
      <!-- 0.95 -->
      <g transform="translate(114.734375 354.104646)scale(0.1 -0.1)">
       <use xlink:href="#DejaVuSans-30"/>
       <use x="63.623047" xlink:href="#DejaVuSans-2e"/>
       <use x="95.410156" xlink:href="#DejaVuSans-39"/>
       <use x="159.033203" xlink:href="#DejaVuSans-35"/>
      </g>
     </g>
    </g>
    <g id="ytick_13">
     <g id="line2d_32">
      <g>
       <use style="stroke:#000000;stroke-width:0.8;" x="144" xlink:href="#m9bd532a069" y="320.203636"/>
      </g>
     </g>
     <g id="text_30">
      <!-- 1.00 -->
      <g transform="translate(114.734375 324.002855)scale(0.1 -0.1)">
       <use xlink:href="#DejaVuSans-31"/>
       <use x="63.623047" xlink:href="#DejaVuSans-2e"/>
       <use x="95.410156" xlink:href="#DejaVuSans-30"/>
       <use x="159.033203" xlink:href="#DejaVuSans-30"/>
      </g>
     </g>
    </g>
    <g id="text_31">
     <!-- completeness_scores -->
     <defs>
      <path d="M 18.109375 8.203125 
L 18.109375 -20.796875 
L 9.078125 -20.796875 
L 9.078125 54.6875 
L 18.109375 54.6875 
L 18.109375 46.390625 
Q 20.953125 51.265625 25.265625 53.625 
Q 29.59375 56 35.59375 56 
Q 45.5625 56 51.78125 48.09375 
Q 58.015625 40.1875 58.015625 27.296875 
Q 58.015625 14.40625 51.78125 6.484375 
Q 45.5625 -1.421875 35.59375 -1.421875 
Q 29.59375 -1.421875 25.265625 0.953125 
Q 20.953125 3.328125 18.109375 8.203125 
z
M 48.6875 27.296875 
Q 48.6875 37.203125 44.609375 42.84375 
Q 40.53125 48.484375 33.40625 48.484375 
Q 26.265625 48.484375 22.1875 42.84375 
Q 18.109375 37.203125 18.109375 27.296875 
Q 18.109375 17.390625 22.1875 11.75 
Q 26.265625 6.109375 33.40625 6.109375 
Q 40.53125 6.109375 44.609375 11.75 
Q 48.6875 17.390625 48.6875 27.296875 
z
" id="DejaVuSans-70"/>
      <path d="M 50.984375 -16.609375 
L 50.984375 -23.578125 
L -0.984375 -23.578125 
L -0.984375 -16.609375 
z
" id="DejaVuSans-5f"/>
     </defs>
     <g transform="translate(108.376562 465.298594)rotate(-90)scale(0.1 -0.1)">
      <use xlink:href="#DejaVuSans-63"/>
      <use x="54.980469" xlink:href="#DejaVuSans-6f"/>
      <use x="116.162109" xlink:href="#DejaVuSans-6d"/>
      <use x="213.574219" xlink:href="#DejaVuSans-70"/>
      <use x="277.050781" xlink:href="#DejaVuSans-6c"/>
      <use x="304.833984" xlink:href="#DejaVuSans-65"/>
      <use x="366.357422" xlink:href="#DejaVuSans-74"/>
      <use x="405.566406" xlink:href="#DejaVuSans-65"/>
      <use x="467.089844" xlink:href="#DejaVuSans-6e"/>
      <use x="530.46875" xlink:href="#DejaVuSans-65"/>
      <use x="591.992188" xlink:href="#DejaVuSans-73"/>
      <use x="644.091797" xlink:href="#DejaVuSans-73"/>
      <use x="696.191406" xlink:href="#DejaVuSans-5f"/>
      <use x="746.191406" xlink:href="#DejaVuSans-73"/>
      <use x="798.291016" xlink:href="#DejaVuSans-63"/>
      <use x="853.271484" xlink:href="#DejaVuSans-6f"/>
      <use x="914.453125" xlink:href="#DejaVuSans-72"/>
      <use x="955.535156" xlink:href="#DejaVuSans-65"/>
      <use x="1017.058594" xlink:href="#DejaVuSans-73"/>
     </g>
    </g>
   </g>
   <g id="line2d_33">
    <path clip-path="url(#p9227f9b754)" d="M 285.870169 426.349367 
L 282.84844 422.150734 
L 279.826711 417.880395 
L 276.804982 413.536497 
L 273.783253 409.117124 
L 270.761524 404.620291 
L 267.739796 400.043944 
L 264.718067 395.385955 
L 261.696338 390.644119 
L 258.674609 385.816152 
L 255.65288 380.899686 
L 252.631151 381.461128 
L 249.609423 376.412197 
L 246.587694 377.481741 
L 243.565965 372.249095 
L 240.544236 366.91495 
L 237.522507 361.476324 
L 234.500778 355.930116 
L 231.47905 350.273104 
L 228.457321 344.501932 
L 225.435592 338.613111 
L 222.413863 332.651388 
L 219.392134 326.492527 
L 216.370405 320.203636 
L 213.348677 320.203636 
L 210.326948 320.203636 
L 207.305219 320.203636 
L 204.28349 320.203636 
L 201.261761 320.203636 
L 198.240032 320.203636 
L 195.218304 320.203636 
L 192.196575 320.203636 
L 189.174846 320.203636 
L 186.153117 320.203636 
L 183.131388 320.203636 
L 180.10966 320.203636 
L 177.087931 320.203636 
L 174.066202 320.203636 
L 171.044473 320.203636 
L 168.022744 320.203636 
L 165.001015 320.203636 
L 161.979287 320.203636 
L 158.957558 320.203636 
L 155.935829 320.203636 
" style="fill:none;stroke:#ff0029;stroke-linecap:square;stroke-width:1.5;"/>
   </g>
   <g id="line2d_34">
    <path clip-path="url(#p9227f9b754)" d="M 279.826711 326.903254 
L 276.804982 320.203636 
L 273.783253 320.203636 
L 270.761524 320.203636 
L 267.739796 320.203636 
L 264.718067 320.203636 
L 261.696338 320.203636 
L 258.674609 320.203636 
L 255.65288 320.203636 
L 252.631151 320.203636 
L 249.609423 320.203636 
L 246.587694 320.203636 
L 243.565965 320.203636 
L 240.544236 320.203636 
L 237.522507 320.203636 
L 234.500778 320.203636 
L 231.47905 320.203636 
L 228.457321 320.203636 
L 225.435592 320.203636 
L 222.413863 320.203636 
L 219.392134 320.203636 
L 216.370405 320.203636 
L 213.348677 320.203636 
L 210.326948 320.203636 
L 207.305219 320.203636 
L 204.28349 320.203636 
L 201.261761 320.203636 
L 198.240032 320.203636 
L 195.218304 320.203636 
L 192.196575 320.203636 
L 189.174846 320.203636 
L 186.153117 320.203636 
L 183.131388 320.203636 
L 180.10966 320.203636 
L 177.087931 320.203636 
L 174.066202 320.203636 
L 171.044473 320.203636 
L 168.022744 320.203636 
L 165.001015 320.203636 
L 161.979287 320.203636 
L 158.957558 320.203636 
L 155.935829 320.203636 
" style="fill:none;stroke:#cdff00;stroke-linecap:square;stroke-width:1.5;"/>
   </g>
   <g id="line2d_35">
    <path clip-path="url(#p9227f9b754)" d="M 285.870169 326.626718 
L 282.84844 320.203636 
L 279.826711 320.203636 
L 276.804982 320.203636 
L 273.783253 320.203636 
L 270.761524 320.203636 
L 267.739796 320.203636 
L 264.718067 320.203636 
L 261.696338 320.203636 
L 258.674609 320.203636 
L 255.65288 320.203636 
L 252.631151 320.203636 
L 249.609423 320.203636 
L 246.587694 320.203636 
L 243.565965 320.203636 
L 240.544236 320.203636 
L 237.522507 320.203636 
L 234.500778 320.203636 
L 231.47905 320.203636 
L 228.457321 320.203636 
L 225.435592 320.203636 
L 222.413863 320.203636 
L 219.392134 320.203636 
L 216.370405 320.203636 
L 213.348677 320.203636 
L 210.326948 320.203636 
L 207.305219 320.203636 
L 204.28349 320.203636 
L 201.261761 320.203636 
L 198.240032 320.203636 
L 195.218304 320.203636 
L 192.196575 320.203636 
L 189.174846 320.203636 
L 186.153117 320.203636 
L 183.131388 320.203636 
L 180.10966 320.203636 
L 177.087931 320.203636 
L 174.066202 320.203636 
L 171.044473 320.203636 
L 168.022744 320.203636 
L 165.001015 320.203636 
L 161.979287 320.203636 
L 158.957558 320.203636 
L 155.935829 320.203636 
" style="fill:none;stroke:#00ff8c;stroke-linecap:square;stroke-width:1.5;"/>
   </g>
   <g id="line2d_36">
    <path clip-path="url(#p9227f9b754)" d="M 183.131388 320.203636 
L 180.10966 456.829538 
L 177.087931 473.495744 
L 174.066202 503.476364 
L 171.044473 481.000985 
L 168.022744 463.435908 
L 165.001015 497.147566 
L 161.979287 485.036116 
L 158.957558 474.476457 
L 155.935829 320.203636 
" style="fill:none;stroke:#0018ff;stroke-linecap:square;stroke-width:1.5;"/>
   </g>
   <g id="line2d_37">
    <path clip-path="url(#p9227f9b754)" d="M 394.652406 320.203636 
L 391.630678 429.588864 
L 388.608949 470.188562 
L 385.58722 438.773548 
L 382.565491 444.714518 
L 379.543762 435.486468 
L 376.522033 429.534985 
L 373.500305 437.83245 
L 370.478576 439.902819 
L 367.456847 426.819854 
L 364.435118 436.468428 
L 361.413389 430.664887 
L 358.39166 434.617752 
L 355.369932 428.721096 
L 352.348203 431.735903 
L 349.326474 434.132687 
L 346.304745 429.005287 
L 343.283016 420.653948 
L 340.261287 421.928787 
L 337.239559 440.199897 
L 334.21783 411.334181 
L 331.196101 423.641258 
L 328.174372 428.925451 
L 325.152643 423.938769 
L 322.130915 424.690172 
L 319.109186 428.073341 
L 316.087457 419.908917 
L 313.065728 434.5412 
L 310.043999 431.709241 
L 307.02227 428.726079 
L 304.000542 424.408854 
L 300.978813 426.182351 
L 297.957084 428.06896 
L 294.935355 423.855674 
L 291.913626 424.080479 
L 288.891897 425.612872 
L 285.870169 425.216309 
L 282.84844 424.822719 
L 279.826711 425.805934 
L 276.804982 426.094716 
L 273.783253 424.473541 
L 270.761524 426.56521 
L 267.739796 423.974302 
L 264.718067 428.600048 
L 261.696338 424.877158 
L 258.674609 421.485468 
L 255.65288 423.5155 
L 252.631151 416.923954 
L 249.609423 419.343865 
L 246.587694 416.756673 
L 243.565965 419.08486 
L 240.544236 421.19688 
L 237.522507 417.857471 
L 234.500778 417.397675 
L 231.47905 422.056227 
L 228.457321 421.43542 
L 225.435592 423.469989 
L 222.413863 420.547382 
L 219.392134 419.67479 
L 216.370405 320.203636 
L 213.348677 320.203636 
L 210.326948 320.203636 
L 207.305219 320.203636 
L 204.28349 320.203636 
L 201.261761 320.203636 
L 198.240032 320.203636 
L 195.218304 320.203636 
L 192.196575 320.203636 
L 189.174846 320.203636 
L 186.153117 320.203636 
L 183.131388 320.203636 
L 180.10966 320.203636 
L 177.087931 320.203636 
L 174.066202 320.203636 
L 171.044473 320.203636 
L 168.022744 320.203636 
L 165.001015 320.203636 
L 161.979287 320.203636 
L 158.957558 320.203636 
L 155.935829 320.203636 
" style="fill:none;stroke:#ff00bf;stroke-linecap:square;stroke-width:1.5;"/>
   </g>
   <g id="patch_8">
    <path d="M 144 512.64 
L 144 311.04 
" style="fill:none;stroke:#000000;stroke-linecap:square;stroke-linejoin:miter;stroke-width:0.8;"/>
   </g>
   <g id="patch_9">
    <path d="M 406.588235 512.64 
L 406.588235 311.04 
" style="fill:none;stroke:#000000;stroke-linecap:square;stroke-linejoin:miter;stroke-width:0.8;"/>
   </g>
   <g id="patch_10">
    <path d="M 144 512.64 
L 406.588235 512.64 
" style="fill:none;stroke:#000000;stroke-linecap:square;stroke-linejoin:miter;stroke-width:0.8;"/>
   </g>
   <g id="patch_11">
    <path d="M 144 311.04 
L 406.588235 311.04 
" style="fill:none;stroke:#000000;stroke-linecap:square;stroke-linejoin:miter;stroke-width:0.8;"/>
   </g>
  </g>
  <g id="axes_3">
   <g id="patch_12">
    <path d="M 459.105882 512.64 
L 721.694118 512.64 
L 721.694118 311.04 
L 459.105882 311.04 
z
" style="fill:#ffffff;"/>
   </g>
   <g id="matplotlib.axis_5">
    <g id="xtick_15">
     <g id="line2d_38">
      <g>
       <use style="stroke:#000000;stroke-width:0.8;" x="468.019982" xlink:href="#m84fc4062ad" y="512.64"/>
      </g>
     </g>
     <g id="text_32">
      <!-- 0 -->
      <g transform="translate(464.838732 527.238438)scale(0.1 -0.1)">
       <use xlink:href="#DejaVuSans-30"/>
      </g>
     </g>
    </g>
    <g id="xtick_16">
     <g id="line2d_39">
      <g>
       <use style="stroke:#000000;stroke-width:0.8;" x="528.454559" xlink:href="#m84fc4062ad" y="512.64"/>
      </g>
     </g>
     <g id="text_33">
      <!-- 20 -->
      <g transform="translate(522.092059 527.238438)scale(0.1 -0.1)">
       <use xlink:href="#DejaVuSans-32"/>
       <use x="63.623047" xlink:href="#DejaVuSans-30"/>
      </g>
     </g>
    </g>
    <g id="xtick_17">
     <g id="line2d_40">
      <g>
       <use style="stroke:#000000;stroke-width:0.8;" x="588.889136" xlink:href="#m84fc4062ad" y="512.64"/>
      </g>
     </g>
     <g id="text_34">
      <!-- 40 -->
      <g transform="translate(582.526636 527.238438)scale(0.1 -0.1)">
       <use xlink:href="#DejaVuSans-34"/>
       <use x="63.623047" xlink:href="#DejaVuSans-30"/>
      </g>
     </g>
    </g>
    <g id="xtick_18">
     <g id="line2d_41">
      <g>
       <use style="stroke:#000000;stroke-width:0.8;" x="649.323712" xlink:href="#m84fc4062ad" y="512.64"/>
      </g>
     </g>
     <g id="text_35">
      <!-- 60 -->
      <g transform="translate(642.961212 527.238438)scale(0.1 -0.1)">
       <use xlink:href="#DejaVuSans-36"/>
       <use x="63.623047" xlink:href="#DejaVuSans-30"/>
      </g>
     </g>
    </g>
    <g id="xtick_19">
     <g id="line2d_42">
      <g>
       <use style="stroke:#000000;stroke-width:0.8;" x="709.758289" xlink:href="#m84fc4062ad" y="512.64"/>
      </g>
     </g>
     <g id="text_36">
      <!-- 80 -->
      <g transform="translate(703.395789 527.238438)scale(0.1 -0.1)">
       <use xlink:href="#DejaVuSans-38"/>
       <use x="63.623047" xlink:href="#DejaVuSans-30"/>
      </g>
     </g>
    </g>
    <g id="text_37">
     <!-- number of clusters -->
     <g transform="translate(543.279688 540.916563)scale(0.1 -0.1)">
      <use xlink:href="#DejaVuSans-6e"/>
      <use x="63.378906" xlink:href="#DejaVuSans-75"/>
      <use x="126.757812" xlink:href="#DejaVuSans-6d"/>
      <use x="224.169922" xlink:href="#DejaVuSans-62"/>
      <use x="287.646484" xlink:href="#DejaVuSans-65"/>
      <use x="349.169922" xlink:href="#DejaVuSans-72"/>
      <use x="390.283203" xlink:href="#DejaVuSans-20"/>
      <use x="422.070312" xlink:href="#DejaVuSans-6f"/>
      <use x="483.251953" xlink:href="#DejaVuSans-66"/>
      <use x="518.457031" xlink:href="#DejaVuSans-20"/>
      <use x="550.244141" xlink:href="#DejaVuSans-63"/>
      <use x="605.224609" xlink:href="#DejaVuSans-6c"/>
      <use x="633.007812" xlink:href="#DejaVuSans-75"/>
      <use x="696.386719" xlink:href="#DejaVuSans-73"/>
      <use x="748.486328" xlink:href="#DejaVuSans-74"/>
      <use x="787.695312" xlink:href="#DejaVuSans-65"/>
      <use x="849.21875" xlink:href="#DejaVuSans-72"/>
      <use x="890.332031" xlink:href="#DejaVuSans-73"/>
     </g>
    </g>
   </g>
   <g id="matplotlib.axis_6">
    <g id="ytick_14">
     <g id="line2d_43">
      <g>
       <use style="stroke:#000000;stroke-width:0.8;" x="459.105882" xlink:href="#m9bd532a069" y="503.476364"/>
      </g>
     </g>
     <g id="text_38">
      <!-- 0.0 -->
      <g transform="translate(436.202757 507.275582)scale(0.1 -0.1)">
       <use xlink:href="#DejaVuSans-30"/>
       <use x="63.623047" xlink:href="#DejaVuSans-2e"/>
       <use x="95.410156" xlink:href="#DejaVuSans-30"/>
      </g>
     </g>
    </g>
    <g id="ytick_15">
     <g id="line2d_44">
      <g>
       <use style="stroke:#000000;stroke-width:0.8;" x="459.105882" xlink:href="#m9bd532a069" y="466.821818"/>
      </g>
     </g>
     <g id="text_39">
      <!-- 0.2 -->
      <g transform="translate(436.202757 470.621037)scale(0.1 -0.1)">
       <use xlink:href="#DejaVuSans-30"/>
       <use x="63.623047" xlink:href="#DejaVuSans-2e"/>
       <use x="95.410156" xlink:href="#DejaVuSans-32"/>
      </g>
     </g>
    </g>
    <g id="ytick_16">
     <g id="line2d_45">
      <g>
       <use style="stroke:#000000;stroke-width:0.8;" x="459.105882" xlink:href="#m9bd532a069" y="430.167273"/>
      </g>
     </g>
     <g id="text_40">
      <!-- 0.4 -->
      <g transform="translate(436.202757 433.966491)scale(0.1 -0.1)">
       <use xlink:href="#DejaVuSans-30"/>
       <use x="63.623047" xlink:href="#DejaVuSans-2e"/>
       <use x="95.410156" xlink:href="#DejaVuSans-34"/>
      </g>
     </g>
    </g>
    <g id="ytick_17">
     <g id="line2d_46">
      <g>
       <use style="stroke:#000000;stroke-width:0.8;" x="459.105882" xlink:href="#m9bd532a069" y="393.512727"/>
      </g>
     </g>
     <g id="text_41">
      <!-- 0.6 -->
      <g transform="translate(436.202757 397.311946)scale(0.1 -0.1)">
       <use xlink:href="#DejaVuSans-30"/>
       <use x="63.623047" xlink:href="#DejaVuSans-2e"/>
       <use x="95.410156" xlink:href="#DejaVuSans-36"/>
      </g>
     </g>
    </g>
    <g id="ytick_18">
     <g id="line2d_47">
      <g>
       <use style="stroke:#000000;stroke-width:0.8;" x="459.105882" xlink:href="#m9bd532a069" y="356.858182"/>
      </g>
     </g>
     <g id="text_42">
      <!-- 0.8 -->
      <g transform="translate(436.202757 360.657401)scale(0.1 -0.1)">
       <use xlink:href="#DejaVuSans-30"/>
       <use x="63.623047" xlink:href="#DejaVuSans-2e"/>
       <use x="95.410156" xlink:href="#DejaVuSans-38"/>
      </g>
     </g>
    </g>
    <g id="ytick_19">
     <g id="line2d_48">
      <g>
       <use style="stroke:#000000;stroke-width:0.8;" x="459.105882" xlink:href="#m9bd532a069" y="320.203636"/>
      </g>
     </g>
     <g id="text_43">
      <!-- 1.0 -->
      <g transform="translate(436.202757 324.002855)scale(0.1 -0.1)">
       <use xlink:href="#DejaVuSans-31"/>
       <use x="63.623047" xlink:href="#DejaVuSans-2e"/>
       <use x="95.410156" xlink:href="#DejaVuSans-30"/>
      </g>
     </g>
    </g>
    <g id="text_44">
     <!-- homogeneity_scores -->
     <defs>
      <path d="M 54.890625 33.015625 
L 54.890625 0 
L 45.90625 0 
L 45.90625 32.71875 
Q 45.90625 40.484375 42.875 44.328125 
Q 39.84375 48.1875 33.796875 48.1875 
Q 26.515625 48.1875 22.3125 43.546875 
Q 18.109375 38.921875 18.109375 30.90625 
L 18.109375 0 
L 9.078125 0 
L 9.078125 75.984375 
L 18.109375 75.984375 
L 18.109375 46.1875 
Q 21.34375 51.125 25.703125 53.5625 
Q 30.078125 56 35.796875 56 
Q 45.21875 56 50.046875 50.171875 
Q 54.890625 44.34375 54.890625 33.015625 
z
" id="DejaVuSans-68"/>
      <path d="M 45.40625 27.984375 
Q 45.40625 37.75 41.375 43.109375 
Q 37.359375 48.484375 30.078125 48.484375 
Q 22.859375 48.484375 18.828125 43.109375 
Q 14.796875 37.75 14.796875 27.984375 
Q 14.796875 18.265625 18.828125 12.890625 
Q 22.859375 7.515625 30.078125 7.515625 
Q 37.359375 7.515625 41.375 12.890625 
Q 45.40625 18.265625 45.40625 27.984375 
z
M 54.390625 6.78125 
Q 54.390625 -7.171875 48.1875 -13.984375 
Q 42 -20.796875 29.203125 -20.796875 
Q 24.46875 -20.796875 20.265625 -20.09375 
Q 16.0625 -19.390625 12.109375 -17.921875 
L 12.109375 -9.1875 
Q 16.0625 -11.328125 19.921875 -12.34375 
Q 23.78125 -13.375 27.78125 -13.375 
Q 36.625 -13.375 41.015625 -8.765625 
Q 45.40625 -4.15625 45.40625 5.171875 
L 45.40625 9.625 
Q 42.625 4.78125 38.28125 2.390625 
Q 33.9375 0 27.875 0 
Q 17.828125 0 11.671875 7.65625 
Q 5.515625 15.328125 5.515625 27.984375 
Q 5.515625 40.671875 11.671875 48.328125 
Q 17.828125 56 27.875 56 
Q 33.9375 56 38.28125 53.609375 
Q 42.625 51.21875 45.40625 46.390625 
L 45.40625 54.6875 
L 54.390625 54.6875 
z
" id="DejaVuSans-67"/>
      <path d="M 9.421875 54.6875 
L 18.40625 54.6875 
L 18.40625 0 
L 9.421875 0 
z
M 9.421875 75.984375 
L 18.40625 75.984375 
L 18.40625 64.59375 
L 9.421875 64.59375 
z
" id="DejaVuSans-69"/>
      <path d="M 32.171875 -5.078125 
Q 28.375 -14.84375 24.75 -17.8125 
Q 21.140625 -20.796875 15.09375 -20.796875 
L 7.90625 -20.796875 
L 7.90625 -13.28125 
L 13.1875 -13.28125 
Q 16.890625 -13.28125 18.9375 -11.515625 
Q 21 -9.765625 23.484375 -3.21875 
L 25.09375 0.875 
L 2.984375 54.6875 
L 12.5 54.6875 
L 29.59375 11.921875 
L 46.6875 54.6875 
L 56.203125 54.6875 
z
" id="DejaVuSans-79"/>
     </defs>
     <g transform="translate(429.844945 463.450938)rotate(-90)scale(0.1 -0.1)">
      <use xlink:href="#DejaVuSans-68"/>
      <use x="63.378906" xlink:href="#DejaVuSans-6f"/>
      <use x="124.560547" xlink:href="#DejaVuSans-6d"/>
      <use x="221.972656" xlink:href="#DejaVuSans-6f"/>
      <use x="283.154297" xlink:href="#DejaVuSans-67"/>
      <use x="346.630859" xlink:href="#DejaVuSans-65"/>
      <use x="408.154297" xlink:href="#DejaVuSans-6e"/>
      <use x="471.533203" xlink:href="#DejaVuSans-65"/>
      <use x="533.056641" xlink:href="#DejaVuSans-69"/>
      <use x="560.839844" xlink:href="#DejaVuSans-74"/>
      <use x="600.048828" xlink:href="#DejaVuSans-79"/>
      <use x="659.228516" xlink:href="#DejaVuSans-5f"/>
      <use x="709.228516" xlink:href="#DejaVuSans-73"/>
      <use x="761.328125" xlink:href="#DejaVuSans-63"/>
      <use x="816.308594" xlink:href="#DejaVuSans-6f"/>
      <use x="877.490234" xlink:href="#DejaVuSans-72"/>
      <use x="918.572266" xlink:href="#DejaVuSans-65"/>
      <use x="980.095703" xlink:href="#DejaVuSans-73"/>
     </g>
    </g>
   </g>
   <g id="line2d_49">
    <path clip-path="url(#pb534182e2f)" d="M 600.976051 320.203636 
L 597.954322 320.203636 
L 594.932593 320.203636 
L 591.910864 320.203636 
L 588.889136 320.203636 
L 585.867407 320.203636 
L 582.845678 320.203636 
L 579.823949 320.203636 
L 576.80222 320.203636 
L 573.780491 320.203636 
L 570.758763 320.203636 
L 567.737034 322.071717 
L 564.715305 322.071717 
L 561.693576 325.807879 
L 558.671847 325.807879 
L 555.650118 325.807879 
L 552.62839 325.807879 
L 549.606661 325.807879 
L 546.584932 325.807879 
L 543.563203 325.807879 
L 540.541474 325.807879 
L 537.519745 326.512974 
L 534.498017 326.512974 
L 531.476288 327.675959 
L 528.454559 332.822312 
L 525.43283 336.558473 
L 522.411101 340.294635 
L 519.389373 346.356767 
L 516.367644 350.092929 
L 513.345915 355.239281 
L 510.324186 358.975443 
L 507.302457 362.711604 
L 504.280728 369.454704 
L 501.259 374.601057 
L 498.237271 383.670128 
L 495.215542 388.81648 
L 492.193813 396.102246 
L 489.172084 407.388899 
L 486.150355 422.827956 
L 483.128627 430.951335 
L 480.106898 445.007564 
L 477.085169 464.611827 
L 474.06344 503.476364 
L 471.041711 320.203636 
" style="fill:none;stroke:#ff0029;stroke-linecap:square;stroke-width:1.5;"/>
   </g>
   <g id="line2d_50">
    <path clip-path="url(#pb534182e2f)" d="M 594.932593 326.914416 
L 591.910864 320.203636 
L 588.889136 320.203636 
L 585.867407 320.203636 
L 582.845678 320.203636 
L 579.823949 320.203636 
L 576.80222 320.203636 
L 573.780491 320.203636 
L 570.758763 320.203636 
L 567.737034 320.203636 
L 564.715305 320.203636 
L 561.693576 320.203636 
L 558.671847 320.203636 
L 555.650118 320.203636 
L 552.62839 320.203636 
L 549.606661 320.203636 
L 546.584932 320.203636 
L 543.563203 320.203636 
L 540.541474 320.203636 
L 537.519745 320.203636 
L 534.498017 320.203636 
L 531.476288 320.203636 
L 528.454559 320.203636 
L 525.43283 320.203636 
L 522.411101 320.203636 
L 519.389373 320.203636 
L 516.367644 320.203636 
L 513.345915 320.203636 
L 510.324186 320.203636 
L 507.302457 320.203636 
L 504.280728 320.203636 
L 501.259 320.203636 
L 498.237271 320.203636 
L 495.215542 320.203636 
L 492.193813 320.203636 
L 489.172084 320.203636 
L 486.150355 320.203636 
L 483.128627 320.203636 
L 480.106898 320.203636 
L 477.085169 320.203636 
L 474.06344 320.203636 
L 471.041711 320.203636 
" style="fill:none;stroke:#cdff00;stroke-linecap:square;stroke-width:1.5;"/>
   </g>
   <g id="line2d_51">
    <path clip-path="url(#pb534182e2f)" d="M 600.976051 330.249136 
L 597.954322 320.203636 
L 594.932593 320.203636 
L 591.910864 320.203636 
L 588.889136 320.203636 
L 585.867407 320.203636 
L 582.845678 320.203636 
L 579.823949 320.203636 
L 576.80222 320.203636 
L 573.780491 320.203636 
L 570.758763 320.203636 
L 567.737034 320.203636 
L 564.715305 320.203636 
L 561.693576 320.203636 
L 558.671847 320.203636 
L 555.650118 320.203636 
L 552.62839 320.203636 
L 549.606661 320.203636 
L 546.584932 320.203636 
L 543.563203 320.203636 
L 540.541474 320.203636 
L 537.519745 320.203636 
L 534.498017 320.203636 
L 531.476288 320.203636 
L 528.454559 320.203636 
L 525.43283 320.203636 
L 522.411101 320.203636 
L 519.389373 320.203636 
L 516.367644 320.203636 
L 513.345915 320.203636 
L 510.324186 320.203636 
L 507.302457 320.203636 
L 504.280728 320.203636 
L 501.259 320.203636 
L 498.237271 320.203636 
L 495.215542 320.203636 
L 492.193813 320.203636 
L 489.172084 320.203636 
L 486.150355 320.203636 
L 483.128627 320.203636 
L 480.106898 320.203636 
L 477.085169 320.203636 
L 474.06344 320.203636 
L 471.041711 320.203636 
" style="fill:none;stroke:#00ff8c;stroke-linecap:square;stroke-width:1.5;"/>
   </g>
   <g id="line2d_52">
    <path clip-path="url(#pb534182e2f)" d="M 498.237271 503.476364 
L 495.215542 449.70121 
L 492.193813 411.051749 
L 489.172084 395.265496 
L 486.150355 373.52082 
L 483.128627 351.776143 
L 480.106898 351.776143 
L 477.085169 335.98989 
L 474.06344 320.203636 
L 471.041711 320.203636 
" style="fill:none;stroke:#0018ff;stroke-linecap:square;stroke-width:1.5;"/>
   </g>
   <g id="line2d_53">
    <path clip-path="url(#pb534182e2f)" d="M 709.758289 503.476364 
L 706.73656 476.334028 
L 703.714831 464.553944 
L 700.693102 450.819927 
L 697.671373 440.741177 
L 694.649645 438.045095 
L 691.627916 425.880131 
L 688.606187 425.477509 
L 685.584458 420.215837 
L 682.562729 411.463913 
L 679.541 409.951822 
L 676.519272 407.693392 
L 673.497543 404.407762 
L 670.475814 401.676806 
L 667.454085 397.461073 
L 664.432356 396.510008 
L 661.410627 394.195391 
L 658.388899 391.703626 
L 655.36717 389.15062 
L 652.345441 392.805374 
L 649.323712 382.810263 
L 646.301983 383.128323 
L 643.280255 382.378274 
L 640.258526 379.409523 
L 637.236797 376.387846 
L 634.215068 377.26679 
L 631.193339 373.35113 
L 628.17161 374.947947 
L 625.149882 370.918358 
L 622.128153 370.361322 
L 619.106424 367.746657 
L 616.084695 366.463674 
L 613.062966 365.427813 
L 610.041237 362.731089 
L 607.019509 363.099031 
L 603.99778 361.509108 
L 600.976051 360.859201 
L 597.954322 360.209294 
L 594.932593 357.776522 
L 591.910864 358.258392 
L 588.889136 355.518679 
L 585.867407 355.02569 
L 582.845678 354.657747 
L 579.823949 354.489711 
L 576.80222 352.11794 
L 573.780491 350.239159 
L 570.758763 349.703181 
L 567.737034 346.048427 
L 564.715305 346.259453 
L 561.693576 345.723474 
L 558.671847 345.766463 
L 555.650118 345.441509 
L 552.62839 343.394692 
L 549.606661 342.490771 
L 546.584932 342.815725 
L 543.563203 341.629839 
L 540.541474 341.304886 
L 537.519745 339.907975 
L 534.498017 338.186111 
L 531.476288 320.203636 
L 528.454559 320.203636 
L 525.43283 320.203636 
L 522.411101 320.203636 
L 519.389373 320.203636 
L 516.367644 320.203636 
L 513.345915 320.203636 
L 510.324186 320.203636 
L 507.302457 320.203636 
L 504.280728 320.203636 
L 501.259 320.203636 
L 498.237271 320.203636 
L 495.215542 320.203636 
L 492.193813 320.203636 
L 489.172084 320.203636 
L 486.150355 320.203636 
L 483.128627 320.203636 
L 480.106898 320.203636 
L 477.085169 320.203636 
L 474.06344 320.203636 
L 471.041711 320.203636 
" style="fill:none;stroke:#ff00bf;stroke-linecap:square;stroke-width:1.5;"/>
   </g>
   <g id="patch_13">
    <path d="M 459.105882 512.64 
L 459.105882 311.04 
" style="fill:none;stroke:#000000;stroke-linecap:square;stroke-linejoin:miter;stroke-width:0.8;"/>
   </g>
   <g id="patch_14">
    <path d="M 721.694118 512.64 
L 721.694118 311.04 
" style="fill:none;stroke:#000000;stroke-linecap:square;stroke-linejoin:miter;stroke-width:0.8;"/>
   </g>
   <g id="patch_15">
    <path d="M 459.105882 512.64 
L 721.694118 512.64 
" style="fill:none;stroke:#000000;stroke-linecap:square;stroke-linejoin:miter;stroke-width:0.8;"/>
   </g>
   <g id="patch_16">
    <path d="M 459.105882 311.04 
L 721.694118 311.04 
" style="fill:none;stroke:#000000;stroke-linecap:square;stroke-linejoin:miter;stroke-width:0.8;"/>
   </g>
  </g>
  <g id="legend_1">
   <g id="patch_17">
    <path d="M 947.965625 140.160937 
L 1145 140.160937 
Q 1147 140.160937 1147 138.160937 
L 1147 7 
Q 1147 5 1145 5 
L 947.965625 5 
Q 945.965625 5 945.965625 7 
L 945.965625 138.160937 
Q 945.965625 140.160937 947.965625 140.160937 
z
" style="fill:#ffffff;opacity:0.8;stroke:#cccccc;stroke-linejoin:miter;"/>
   </g>
   <g id="line2d_54">
    <path d="M 949.965625 20.015312 
L 969.965625 20.015312 
" style="fill:none;stroke:#ff0029;stroke-linecap:square;stroke-width:1.5;"/>
   </g>
   <g id="line2d_55"/>
   <g id="text_45">
    <!-- pairwise_lstm_100_00999.h5 -->
    <defs>
     <path d="M 34.28125 27.484375 
Q 23.390625 27.484375 19.1875 25 
Q 14.984375 22.515625 14.984375 16.5 
Q 14.984375 11.71875 18.140625 8.90625 
Q 21.296875 6.109375 26.703125 6.109375 
Q 34.1875 6.109375 38.703125 11.40625 
Q 43.21875 16.703125 43.21875 25.484375 
L 43.21875 27.484375 
z
M 52.203125 31.203125 
L 52.203125 0 
L 43.21875 0 
L 43.21875 8.296875 
Q 40.140625 3.328125 35.546875 0.953125 
Q 30.953125 -1.421875 24.3125 -1.421875 
Q 15.921875 -1.421875 10.953125 3.296875 
Q 6 8.015625 6 15.921875 
Q 6 25.140625 12.171875 29.828125 
Q 18.359375 34.515625 30.609375 34.515625 
L 43.21875 34.515625 
L 43.21875 35.40625 
Q 43.21875 41.609375 39.140625 45 
Q 35.0625 48.390625 27.6875 48.390625 
Q 23 48.390625 18.546875 47.265625 
Q 14.109375 46.140625 10.015625 43.890625 
L 10.015625 52.203125 
Q 14.9375 54.109375 19.578125 55.046875 
Q 24.21875 56 28.609375 56 
Q 40.484375 56 46.34375 49.84375 
Q 52.203125 43.703125 52.203125 31.203125 
z
" id="DejaVuSans-61"/>
     <path d="M 4.203125 54.6875 
L 13.1875 54.6875 
L 24.421875 12.015625 
L 35.59375 54.6875 
L 46.1875 54.6875 
L 57.421875 12.015625 
L 68.609375 54.6875 
L 77.59375 54.6875 
L 63.28125 0 
L 52.6875 0 
L 40.921875 44.828125 
L 29.109375 0 
L 18.5 0 
z
" id="DejaVuSans-77"/>
    </defs>
    <g transform="translate(977.965625 17.154687)scale(0.1 -0.1)">
     <use xlink:href="#DejaVuSans-70"/>
     <use x="63.476562" xlink:href="#DejaVuSans-61"/>
     <use x="124.755859" xlink:href="#DejaVuSans-69"/>
     <use x="152.539062" xlink:href="#DejaVuSans-72"/>
     <use x="193.652344" xlink:href="#DejaVuSans-77"/>
     <use x="275.439453" xlink:href="#DejaVuSans-69"/>
     <use x="303.222656" xlink:href="#DejaVuSans-73"/>
     <use x="355.322266" xlink:href="#DejaVuSans-65"/>
     <use x="416.845703" xlink:href="#DejaVuSans-5f"/>
     <use x="466.845703" xlink:href="#DejaVuSans-6c"/>
     <use x="494.628906" xlink:href="#DejaVuSans-73"/>
     <use x="546.728516" xlink:href="#DejaVuSans-74"/>
     <use x="585.9375" xlink:href="#DejaVuSans-6d"/>
     <use x="683.349609" xlink:href="#DejaVuSans-5f"/>
     <use x="733.349609" xlink:href="#DejaVuSans-31"/>
     <use x="796.972656" xlink:href="#DejaVuSans-30"/>
     <use x="860.595703" xlink:href="#DejaVuSans-30"/>
     <use x="924.21875" xlink:href="#DejaVuSans-5f"/>
     <use x="974.21875" xlink:href="#DejaVuSans-30"/>
     <use x="1037.841797" xlink:href="#DejaVuSans-30"/>
     <use x="1101.464844" xlink:href="#DejaVuSans-39"/>
     <use x="1165.087891" xlink:href="#DejaVuSans-39"/>
     <use x="1228.710938" xlink:href="#DejaVuSans-39"/>
     <use x="1292.333984" xlink:href="#DejaVuSans-2e"/>
     <use x="1324.121094" xlink:href="#DejaVuSans-68"/>
     <use x="1387.5" xlink:href="#DejaVuSans-35"/>
    </g>
    <!--  min MR: 0.06818181818181818 -->
    <defs>
     <path d="M 11.71875 12.40625 
L 22.015625 12.40625 
L 22.015625 0 
L 11.71875 0 
z
M 11.71875 51.703125 
L 22.015625 51.703125 
L 22.015625 39.3125 
L 11.71875 39.3125 
z
" id="DejaVuSans-3a"/>
    </defs>
    <g transform="translate(977.965625 28.630625)scale(0.1 -0.1)">
     <use xlink:href="#DejaVuSans-20"/>
     <use x="31.787109" xlink:href="#DejaVuSans-6d"/>
     <use x="129.199219" xlink:href="#DejaVuSans-69"/>
     <use x="156.982422" xlink:href="#DejaVuSans-6e"/>
     <use x="220.361328" xlink:href="#DejaVuSans-20"/>
     <use x="252.148438" xlink:href="#DejaVuSans-4d"/>
     <use x="338.427734" xlink:href="#DejaVuSans-52"/>
     <use x="407.863281" xlink:href="#DejaVuSans-3a"/>
     <use x="441.554688" xlink:href="#DejaVuSans-20"/>
     <use x="473.341797" xlink:href="#DejaVuSans-30"/>
     <use x="536.964844" xlink:href="#DejaVuSans-2e"/>
     <use x="568.751953" xlink:href="#DejaVuSans-30"/>
     <use x="632.375" xlink:href="#DejaVuSans-36"/>
     <use x="695.998047" xlink:href="#DejaVuSans-38"/>
     <use x="759.621094" xlink:href="#DejaVuSans-31"/>
     <use x="823.244141" xlink:href="#DejaVuSans-38"/>
     <use x="886.867188" xlink:href="#DejaVuSans-31"/>
     <use x="950.490234" xlink:href="#DejaVuSans-38"/>
     <use x="1014.113281" xlink:href="#DejaVuSans-31"/>
     <use x="1077.736328" xlink:href="#DejaVuSans-38"/>
     <use x="1141.359375" xlink:href="#DejaVuSans-31"/>
     <use x="1204.982422" xlink:href="#DejaVuSans-38"/>
     <use x="1268.605469" xlink:href="#DejaVuSans-31"/>
     <use x="1332.228516" xlink:href="#DejaVuSans-38"/>
     <use x="1395.851562" xlink:href="#DejaVuSans-31"/>
     <use x="1459.474609" xlink:href="#DejaVuSans-38"/>
     <use x="1523.097656" xlink:href="#DejaVuSans-31"/>
     <use x="1586.720703" xlink:href="#DejaVuSans-38"/>
    </g>
   </g>
   <g id="line2d_56">
    <path d="M 949.965625 46.4475 
L 969.965625 46.4475 
" style="fill:none;stroke:#cdff00;stroke-linecap:square;stroke-width:1.5;"/>
   </g>
   <g id="line2d_57"/>
   <g id="text_46">
    <!-- pairwise_lstm_100_00999.h5 -->
    <g transform="translate(977.965625 43.586875)scale(0.1 -0.1)">
     <use xlink:href="#DejaVuSans-70"/>
     <use x="63.476562" xlink:href="#DejaVuSans-61"/>
     <use x="124.755859" xlink:href="#DejaVuSans-69"/>
     <use x="152.539062" xlink:href="#DejaVuSans-72"/>
     <use x="193.652344" xlink:href="#DejaVuSans-77"/>
     <use x="275.439453" xlink:href="#DejaVuSans-69"/>
     <use x="303.222656" xlink:href="#DejaVuSans-73"/>
     <use x="355.322266" xlink:href="#DejaVuSans-65"/>
     <use x="416.845703" xlink:href="#DejaVuSans-5f"/>
     <use x="466.845703" xlink:href="#DejaVuSans-6c"/>
     <use x="494.628906" xlink:href="#DejaVuSans-73"/>
     <use x="546.728516" xlink:href="#DejaVuSans-74"/>
     <use x="585.9375" xlink:href="#DejaVuSans-6d"/>
     <use x="683.349609" xlink:href="#DejaVuSans-5f"/>
     <use x="733.349609" xlink:href="#DejaVuSans-31"/>
     <use x="796.972656" xlink:href="#DejaVuSans-30"/>
     <use x="860.595703" xlink:href="#DejaVuSans-30"/>
     <use x="924.21875" xlink:href="#DejaVuSans-5f"/>
     <use x="974.21875" xlink:href="#DejaVuSans-30"/>
     <use x="1037.841797" xlink:href="#DejaVuSans-30"/>
     <use x="1101.464844" xlink:href="#DejaVuSans-39"/>
     <use x="1165.087891" xlink:href="#DejaVuSans-39"/>
     <use x="1228.710938" xlink:href="#DejaVuSans-39"/>
     <use x="1292.333984" xlink:href="#DejaVuSans-2e"/>
     <use x="1324.121094" xlink:href="#DejaVuSans-68"/>
     <use x="1387.5" xlink:href="#DejaVuSans-35"/>
    </g>
    <!--  min MR: 0.07142857142857142 -->
    <g transform="translate(977.965625 55.062813)scale(0.1 -0.1)">
     <use xlink:href="#DejaVuSans-20"/>
     <use x="31.787109" xlink:href="#DejaVuSans-6d"/>
     <use x="129.199219" xlink:href="#DejaVuSans-69"/>
     <use x="156.982422" xlink:href="#DejaVuSans-6e"/>
     <use x="220.361328" xlink:href="#DejaVuSans-20"/>
     <use x="252.148438" xlink:href="#DejaVuSans-4d"/>
     <use x="338.427734" xlink:href="#DejaVuSans-52"/>
     <use x="407.863281" xlink:href="#DejaVuSans-3a"/>
     <use x="441.554688" xlink:href="#DejaVuSans-20"/>
     <use x="473.341797" xlink:href="#DejaVuSans-30"/>
     <use x="536.964844" xlink:href="#DejaVuSans-2e"/>
     <use x="568.751953" xlink:href="#DejaVuSans-30"/>
     <use x="632.375" xlink:href="#DejaVuSans-37"/>
     <use x="695.998047" xlink:href="#DejaVuSans-31"/>
     <use x="759.621094" xlink:href="#DejaVuSans-34"/>
     <use x="823.244141" xlink:href="#DejaVuSans-32"/>
     <use x="886.867188" xlink:href="#DejaVuSans-38"/>
     <use x="950.490234" xlink:href="#DejaVuSans-35"/>
     <use x="1014.113281" xlink:href="#DejaVuSans-37"/>
     <use x="1077.736328" xlink:href="#DejaVuSans-31"/>
     <use x="1141.359375" xlink:href="#DejaVuSans-34"/>
     <use x="1204.982422" xlink:href="#DejaVuSans-32"/>
     <use x="1268.605469" xlink:href="#DejaVuSans-38"/>
     <use x="1332.228516" xlink:href="#DejaVuSans-35"/>
     <use x="1395.851562" xlink:href="#DejaVuSans-37"/>
     <use x="1459.474609" xlink:href="#DejaVuSans-31"/>
     <use x="1523.097656" xlink:href="#DejaVuSans-34"/>
     <use x="1586.720703" xlink:href="#DejaVuSans-32"/>
    </g>
   </g>
   <g id="line2d_58">
    <path d="M 949.965625 72.879687 
L 969.965625 72.879687 
" style="fill:none;stroke:#00ff8c;stroke-linecap:square;stroke-width:1.5;"/>
   </g>
   <g id="line2d_59"/>
   <g id="text_47">
    <!-- pairwise_lstm_100_00999.h5 -->
    <g transform="translate(977.965625 70.019062)scale(0.1 -0.1)">
     <use xlink:href="#DejaVuSans-70"/>
     <use x="63.476562" xlink:href="#DejaVuSans-61"/>
     <use x="124.755859" xlink:href="#DejaVuSans-69"/>
     <use x="152.539062" xlink:href="#DejaVuSans-72"/>
     <use x="193.652344" xlink:href="#DejaVuSans-77"/>
     <use x="275.439453" xlink:href="#DejaVuSans-69"/>
     <use x="303.222656" xlink:href="#DejaVuSans-73"/>
     <use x="355.322266" xlink:href="#DejaVuSans-65"/>
     <use x="416.845703" xlink:href="#DejaVuSans-5f"/>
     <use x="466.845703" xlink:href="#DejaVuSans-6c"/>
     <use x="494.628906" xlink:href="#DejaVuSans-73"/>
     <use x="546.728516" xlink:href="#DejaVuSans-74"/>
     <use x="585.9375" xlink:href="#DejaVuSans-6d"/>
     <use x="683.349609" xlink:href="#DejaVuSans-5f"/>
     <use x="733.349609" xlink:href="#DejaVuSans-31"/>
     <use x="796.972656" xlink:href="#DejaVuSans-30"/>
     <use x="860.595703" xlink:href="#DejaVuSans-30"/>
     <use x="924.21875" xlink:href="#DejaVuSans-5f"/>
     <use x="974.21875" xlink:href="#DejaVuSans-30"/>
     <use x="1037.841797" xlink:href="#DejaVuSans-30"/>
     <use x="1101.464844" xlink:href="#DejaVuSans-39"/>
     <use x="1165.087891" xlink:href="#DejaVuSans-39"/>
     <use x="1228.710938" xlink:href="#DejaVuSans-39"/>
     <use x="1292.333984" xlink:href="#DejaVuSans-2e"/>
     <use x="1324.121094" xlink:href="#DejaVuSans-68"/>
     <use x="1387.5" xlink:href="#DejaVuSans-35"/>
    </g>
    <!--  min MR: 0.1590909090909091 -->
    <g transform="translate(977.965625 81.495)scale(0.1 -0.1)">
     <use xlink:href="#DejaVuSans-20"/>
     <use x="31.787109" xlink:href="#DejaVuSans-6d"/>
     <use x="129.199219" xlink:href="#DejaVuSans-69"/>
     <use x="156.982422" xlink:href="#DejaVuSans-6e"/>
     <use x="220.361328" xlink:href="#DejaVuSans-20"/>
     <use x="252.148438" xlink:href="#DejaVuSans-4d"/>
     <use x="338.427734" xlink:href="#DejaVuSans-52"/>
     <use x="407.863281" xlink:href="#DejaVuSans-3a"/>
     <use x="441.554688" xlink:href="#DejaVuSans-20"/>
     <use x="473.341797" xlink:href="#DejaVuSans-30"/>
     <use x="536.964844" xlink:href="#DejaVuSans-2e"/>
     <use x="568.751953" xlink:href="#DejaVuSans-31"/>
     <use x="632.375" xlink:href="#DejaVuSans-35"/>
     <use x="695.998047" xlink:href="#DejaVuSans-39"/>
     <use x="759.621094" xlink:href="#DejaVuSans-30"/>
     <use x="823.244141" xlink:href="#DejaVuSans-39"/>
     <use x="886.867188" xlink:href="#DejaVuSans-30"/>
     <use x="950.490234" xlink:href="#DejaVuSans-39"/>
     <use x="1014.113281" xlink:href="#DejaVuSans-30"/>
     <use x="1077.736328" xlink:href="#DejaVuSans-39"/>
     <use x="1141.359375" xlink:href="#DejaVuSans-30"/>
     <use x="1204.982422" xlink:href="#DejaVuSans-39"/>
     <use x="1268.605469" xlink:href="#DejaVuSans-30"/>
     <use x="1332.228516" xlink:href="#DejaVuSans-39"/>
     <use x="1395.851562" xlink:href="#DejaVuSans-30"/>
     <use x="1459.474609" xlink:href="#DejaVuSans-39"/>
     <use x="1523.097656" xlink:href="#DejaVuSans-31"/>
    </g>
   </g>
   <g id="line2d_60">
    <path d="M 949.965625 99.311875 
L 969.965625 99.311875 
" style="fill:none;stroke:#0018ff;stroke-linecap:square;stroke-width:1.5;"/>
   </g>
   <g id="line2d_61"/>
   <g id="text_48">
    <!-- pairwise_lstm_100_best.h5 -->
    <g transform="translate(977.965625 96.45125)scale(0.1 -0.1)">
     <use xlink:href="#DejaVuSans-70"/>
     <use x="63.476562" xlink:href="#DejaVuSans-61"/>
     <use x="124.755859" xlink:href="#DejaVuSans-69"/>
     <use x="152.539062" xlink:href="#DejaVuSans-72"/>
     <use x="193.652344" xlink:href="#DejaVuSans-77"/>
     <use x="275.439453" xlink:href="#DejaVuSans-69"/>
     <use x="303.222656" xlink:href="#DejaVuSans-73"/>
     <use x="355.322266" xlink:href="#DejaVuSans-65"/>
     <use x="416.845703" xlink:href="#DejaVuSans-5f"/>
     <use x="466.845703" xlink:href="#DejaVuSans-6c"/>
     <use x="494.628906" xlink:href="#DejaVuSans-73"/>
     <use x="546.728516" xlink:href="#DejaVuSans-74"/>
     <use x="585.9375" xlink:href="#DejaVuSans-6d"/>
     <use x="683.349609" xlink:href="#DejaVuSans-5f"/>
     <use x="733.349609" xlink:href="#DejaVuSans-31"/>
     <use x="796.972656" xlink:href="#DejaVuSans-30"/>
     <use x="860.595703" xlink:href="#DejaVuSans-30"/>
     <use x="924.21875" xlink:href="#DejaVuSans-5f"/>
     <use x="974.21875" xlink:href="#DejaVuSans-62"/>
     <use x="1037.695312" xlink:href="#DejaVuSans-65"/>
     <use x="1099.21875" xlink:href="#DejaVuSans-73"/>
     <use x="1151.318359" xlink:href="#DejaVuSans-74"/>
     <use x="1190.527344" xlink:href="#DejaVuSans-2e"/>
     <use x="1222.314453" xlink:href="#DejaVuSans-68"/>
     <use x="1285.693359" xlink:href="#DejaVuSans-35"/>
    </g>
    <!--  min MR: 0.3 -->
    <g transform="translate(977.965625 107.927187)scale(0.1 -0.1)">
     <use xlink:href="#DejaVuSans-20"/>
     <use x="31.787109" xlink:href="#DejaVuSans-6d"/>
     <use x="129.199219" xlink:href="#DejaVuSans-69"/>
     <use x="156.982422" xlink:href="#DejaVuSans-6e"/>
     <use x="220.361328" xlink:href="#DejaVuSans-20"/>
     <use x="252.148438" xlink:href="#DejaVuSans-4d"/>
     <use x="338.427734" xlink:href="#DejaVuSans-52"/>
     <use x="407.863281" xlink:href="#DejaVuSans-3a"/>
     <use x="441.554688" xlink:href="#DejaVuSans-20"/>
     <use x="473.341797" xlink:href="#DejaVuSans-30"/>
     <use x="536.964844" xlink:href="#DejaVuSans-2e"/>
     <use x="568.751953" xlink:href="#DejaVuSans-33"/>
    </g>
   </g>
   <g id="line2d_62">
    <path d="M 949.965625 125.744062 
L 969.965625 125.744062 
" style="fill:none;stroke:#ff00bf;stroke-linecap:square;stroke-width:1.5;"/>
   </g>
   <g id="line2d_63"/>
   <g id="text_49">
    <!-- pairwise_lstm_100_best.h5 -->
    <g transform="translate(977.965625 122.883437)scale(0.1 -0.1)">
     <use xlink:href="#DejaVuSans-70"/>
     <use x="63.476562" xlink:href="#DejaVuSans-61"/>
     <use x="124.755859" xlink:href="#DejaVuSans-69"/>
     <use x="152.539062" xlink:href="#DejaVuSans-72"/>
     <use x="193.652344" xlink:href="#DejaVuSans-77"/>
     <use x="275.439453" xlink:href="#DejaVuSans-69"/>
     <use x="303.222656" xlink:href="#DejaVuSans-73"/>
     <use x="355.322266" xlink:href="#DejaVuSans-65"/>
     <use x="416.845703" xlink:href="#DejaVuSans-5f"/>
     <use x="466.845703" xlink:href="#DejaVuSans-6c"/>
     <use x="494.628906" xlink:href="#DejaVuSans-73"/>
     <use x="546.728516" xlink:href="#DejaVuSans-74"/>
     <use x="585.9375" xlink:href="#DejaVuSans-6d"/>
     <use x="683.349609" xlink:href="#DejaVuSans-5f"/>
     <use x="733.349609" xlink:href="#DejaVuSans-31"/>
     <use x="796.972656" xlink:href="#DejaVuSans-30"/>
     <use x="860.595703" xlink:href="#DejaVuSans-30"/>
     <use x="924.21875" xlink:href="#DejaVuSans-5f"/>
     <use x="974.21875" xlink:href="#DejaVuSans-62"/>
     <use x="1037.695312" xlink:href="#DejaVuSans-65"/>
     <use x="1099.21875" xlink:href="#DejaVuSans-73"/>
     <use x="1151.318359" xlink:href="#DejaVuSans-74"/>
     <use x="1190.527344" xlink:href="#DejaVuSans-2e"/>
     <use x="1222.314453" xlink:href="#DejaVuSans-68"/>
     <use x="1285.693359" xlink:href="#DejaVuSans-35"/>
    </g>
    <!--  min MR: 0.4625 -->
    <g transform="translate(977.965625 134.359375)scale(0.1 -0.1)">
     <use xlink:href="#DejaVuSans-20"/>
     <use x="31.787109" xlink:href="#DejaVuSans-6d"/>
     <use x="129.199219" xlink:href="#DejaVuSans-69"/>
     <use x="156.982422" xlink:href="#DejaVuSans-6e"/>
     <use x="220.361328" xlink:href="#DejaVuSans-20"/>
     <use x="252.148438" xlink:href="#DejaVuSans-4d"/>
     <use x="338.427734" xlink:href="#DejaVuSans-52"/>
     <use x="407.863281" xlink:href="#DejaVuSans-3a"/>
     <use x="441.554688" xlink:href="#DejaVuSans-20"/>
     <use x="473.341797" xlink:href="#DejaVuSans-30"/>
     <use x="536.964844" xlink:href="#DejaVuSans-2e"/>
     <use x="568.751953" xlink:href="#DejaVuSans-34"/>
     <use x="632.375" xlink:href="#DejaVuSans-36"/>
     <use x="695.998047" xlink:href="#DejaVuSans-32"/>
     <use x="759.621094" xlink:href="#DejaVuSans-35"/>
    </g>
   </g>
  </g>
 </g>
 <defs>
  <clipPath id="pbeefcfa434">
   <rect height="201.6" width="577.694118" x="144" y="69.12"/>
  </clipPath>
  <clipPath id="p9227f9b754">
   <rect height="201.6" width="262.588235" x="144" y="311.04"/>
  </clipPath>
  <clipPath id="pb534182e2f">
   <rect height="201.6" width="262.588235" x="459.105882" y="311.04"/>
  </clipPath>
 </defs>
</svg>
